<?xml version="1.0" encoding="utf-8"?>
<!-- Generator: Adobe Illustrator 21.1.0, SVG Export Plug-In . SVG Version: 6.00 Build 0)  -->
<svg version="1.1" id="Logo" xmlns="http://www.w3.org/2000/svg" xmlns:xlink="http://www.w3.org/1999/xlink" x="0px" y="0px"
	 viewBox="0 0 127 127" style="enable-background:new 0 0 127 127;" xml:space="preserve">
<style type="text/css">
	.st0{opacity:0.8;enable-background:new    ;}
	.st1{fill:#D23232;}
</style>
<g id="Chaitu" class="st0">
	<path id="K" class="st1" d="M62.9,45.4v6.3l-0.7,2.5l-1.6,1.3l-2,0.2l-1.8-0.4l-1.4-0.7l-0.9-0.9l-0.5-0.4h-0.5L53,53.2l-0.2-0.9
		l-0.2-0.7L52.1,51l-0.4-0.9l-0.2-1.6L51,47.8l-1.3,0.5l-1.1,0.9l0.2,0.7l0.7,0.7l0.5,0.9l2.3,2.3V55l-0.9,0.4l-0.7,0.2v0.2h2
		l2.2,0.2l0.7,0.5l1.4,0.9l2,0.5h1.8l1.4,0.7l0.2,2.3v4L62,68.1l-0.9,1.6V71l0.4,0.9l0.7,0.9l0.4,1.8v5.6l0.2,2.9l0.2,3.6v1.8
		l-0.2,4v7l-0.2,4.3l-0.4,2.7l0.2,3.2l0.2,2l0.2,3.6v3.1l-0.5,3.2l-1.1,2.5l-1.6,1.3l-1.8,0.5l-3.1,0.4l-7,0.5h-3.1l-2-0.2l-4.1-0.2
		H23.3l-4.1-0.2h-2l-3.6,0.2H9.2l-1.8-0.5L6.2,125L6,124.4l0.4-0.2h0.2H5.8l-1.1-0.7l-0.9-2.2l-0.4-2.5V62.5l-0.2-3.4l0.2-3.2v-9
		l-0.2-3.4l0.2-2.3L4,39.5l0.7-0.7l0.5-0.2L5.5,38l-0.2-0.4V38l-0.4,0.4L4,38l-0.4-1.6l0.5-2l0.7-0.9l0.4-0.4v-0.4l-0.2,0.4
		l-0.4-0.4l-0.4-1.3l0.4-1.1l0.7,0.2l0.2,0.5h0.2L6,30.8v-0.9l-0.2-0.7L4.7,28l-0.5-2.9v-2.9L4,19.7l0.2-2.3l1.6-0.7l2-0.9l1.1-1.4
		l-0.2-1.4l-1.8-2.2L5.8,9.6L4.9,8.2l1.4-2l1.4-1.3L7.6,4.4L7.1,4.2l0.2,0.2L6.5,4.7L5.5,4.2l0.7-1.8L8.9,1l2.5-0.2L13.2,1l1.4,0.4
		l0.9,0.2l1.1-0.4l2.7-0.4h3.6l2.9-0.2h2.3l2,0.4l2,0.2l2.2,0.4l1.8,0.9l0.4,0.5l-0.9,0.5l0.2,0.2h2.2L38.8,4h0.5V3.5l-0.2-0.2
		l-0.5-0.4l-0.9-0.7l-0.2-0.9L37.9,1l1.1-0.2L40.4,1l1.3,0.2h1.1L44,1.5l0.9,0.4v0.4l-0.4,0.5L44,3.5V4l0.4,0.4l1.1,0.4l-0.4-0.4
		V2.9l0.5-1.4L46.5,1l1.4-0.2l1.6-0.4l3.2-0.2L56,0.4l2.5,0.9l2.3,1.8l1.3,2.5v3.1l-0.4,2.2v1.3l-0.4,1.3l-1.1,0.4l-1.4-0.5L57.5,13
		h-0.7v-0.7L56,12.7h-1.3L53,12.3l-1.1-0.5l-0.7,0.2L51,13.2l1.3,0.9l1.8,0.9l0.2,1.3l-0.7,0.2l-0.4-0.4l-0.4,0.2v0.5l1.1,0.4
		l1.6-0.7l0.7-1.3l0.5-1.1l0.9-0.7l1.3,0.2l1.4,0.4l1.3,1.1l0.4,1.8l-0.7,1.3l-0.5,0.4h0.2l0.5,0.2l0.5,1.1l0.4,1.6l-0.2,1.1
		L62,22.7l-0.5,0.4l-0.5,0.5v0.9l0.4,0.2l0.4-1.4H62l0.5,1.3l0.2,2l-0.2,2v2.9l0.2,3.2l0.2,2.9l-0.2,2l-0.4,1.8l0.2,2L62.9,45.4z
		 M5.6,13.9l-1.1-0.4L4.4,13v-0.4l-0.2-0.7l0.5-0.7h0.9l0.9,1.3l0.2,1.1L5.6,13.9z M7.8,27.6l-0.2-0.7l-0.9-0.5H6l0.7,0.5l0.7,0.7
		H7.8z M6.5,47.2L6,46.5v0.2L6.5,47.2z M7.8,24.7l1.3-0.4l0.7-0.7l0.4-0.7H10l-1.1,0.2l-1.1-0.4l-0.5-1.1L6.9,22l-0.7,0.9l0.2,1.3
		L7.8,24.7z M7.6,109.3H6.5l-0.2-0.4v-0.4l0.4-0.2v-0.2H6.4l-0.2,0.5l0.2,0.7l0.7,0.2l0.9-0.4l0.4-0.2L7.6,109.3z M6.7,60.4v-0.2
		H6.4v0.2H6.7z M6.9,102.3l0.4-0.4l-0.4-0.4l-0.5,0.4v0.5L6.9,102.3z M6.7,124.1l0.4,0.2v0.4l0.4-0.2l0.2-0.4H6.7z M8,35.5v-0.7
		l-0.5-0.2v0.7L8,35.5z M8,45.8l-0.2-0.5l-0.2-0.2v0.2l0.2,0.5l0.5,0.5L8,45.8z M8,7.3H7.8L8,7.4l0.4,0.2V7.4L8,7.3z M8.2,38.9v0.7
		l0.2,0.5l0.4,0.2L8.9,40v-0.9l-0.4-0.5L8.2,38.9z M8.2,95.6v0.5l0.5,0.2v-0.5L8.2,95.6z M9.6,52.3l-0.4-0.4l-0.5-0.7L8.3,51v0.5
		l0.7,0.7H9.6z M11,19.7v-0.9l-0.4-0.9l-0.4-0.5l0.4-0.7l0.9-0.7l0.7-0.2l0.5-0.2l-0.4-0.7l-0.7-0.9v-0.5L11.4,13L11,13.4v0.7
		l0.4,0.9l0.2,0.7l-2,1.3l-0.5,1.8l0.9,1.1L11,19.7z M10.3,56.6l0.2-0.2L10,56.2l-0.9,0.5v0.5l0.4-0.2l0.4-0.4L10.3,56.6z M11.2,9.8
		V9.1l-1.1-0.2L10,9.6l0.4,0.7L11.2,9.8z M11.6,37.1V37l-0.2-0.9v-0.7l0.5-0.4l0.7-0.4l-0.5-0.2L11,34.6l-0.4,0.7l-0.4,1.1l0.5,0.5
		L11.6,37.1z M13,27.8l1.4-1.4l0.2-1.8l-0.4-1.6l-0.5,0.5v1.8l-0.4,1.4l-1.6,0.9l-1.3,0.9h0.9L13,27.8z M11.2,72.4h0.2l0.4-0.4h-0.2
		L11.2,72.4z M13.6,7.1l-0.4-0.4h-0.7l0.4,0.5L13.6,7.1z M14.3,30.3h-0.5L13,30.1l-0.5,0.2h0.4l0.9,0.2L14.3,30.3z M13.2,42.7
		l-0.4-0.4h-0.4l0.4,0.4H13.2z M13.4,18.6h0.5l-0.2-0.4h-0.4V18.6z M13.9,45.6h0.2v-0.4l-0.4-0.4l-0.4-0.2l0.5,0.5V45.6z
		 M15.5,102.3l-1.1,0.2l-0.5,0.2l-0.5-0.2l0.5,0.5l0.7-0.2l1.1-0.2l0.5-0.2L15.5,102.3z M14.1,117.8l-0.4-0.4l-0.2,0.2l0.2,0.7v0.9
		l0.2-0.2l0.4-0.9l0.2-0.4H14.1z M13.7,11.9l0.2,0.9l0.5,1.1l0.5,0.7l0.5,1.1l0.9,1.1l0.7-0.4l-0.4-1.1l-0.9-0.2l-0.4-0.4L15,13.2
		l-0.7-0.9L13.7,11.9z M14.6,73.5h-0.5l0.7,0.5l0.5,0.2L14.6,73.5z M14.8,10.1l0.5,0.9l1.1,0.4l1.3,0.2l2.2-0.2l2-0.4l1.1-0.5
		l0.4-0.5h-0.5l-1.1,0.2l-0.5,0.4h-0.4l-0.9-0.2l-1.8-0.2l-1.8-0.5l-1.1-0.9V8.3L15.5,8l0.7-0.4l0.9-0.4l0.5-0.4h-0.4l-0.7,0.2
		l-0.7,0.4L15.4,8l-0.7,1.1L14.8,10.1z M16.1,10.7v0.5L15.7,11l-0.4-0.7V10l0.4,0.2L16.1,10.7z M15.9,55.1l-0.5,0.2V56l0.7,0.2
		l0.5-0.2l-0.2-0.4L15.9,55.1z M16.4,71.9l-0.4-0.5l-0.4-0.2l0.2,0.4L16.4,71.9z M16.4,119.7l-0.4-0.4h-0.2l0.5,0.5l0.7,0.2l0.4,0.4
		l-0.2,0.5v0.9l0.2,0.5l0.4-0.4l-0.2-0.2l-0.2-0.4v-0.4l0.2-0.5l0.2-0.7v-0.5L16.4,119.7z M16.1,25.1l0.4-0.2l0.4-0.7l0.4-0.9
		l0.2-0.9l-0.2-0.2l-0.4,0.2l-0.4,0.7l-0.2,1.1l-0.2,0.7V25.1z M17,38.6l0.2-0.2l-0.7-0.2l-0.4,0.2L17,38.6z M17,78.3l-0.5,0.2
		l-0.2,0.7l0.2,0.2l0.4-0.5L17,78.3z M17,99v-0.2l-0.5-0.2v0.2L17,99z M19.1,13.2l1.1-0.2l-0.7-0.2h-1.4L17.9,13L19.1,13.2z
		 M18.8,113.6l-0.4,0.4h0.2l0.7-0.4l0.4-0.5l-0.4,0.2L18.8,113.6z M19.3,27.1l0.9-1.1l0.2-0.7l-0.5,0.4l-0.7,1.1L19.3,27.1z
		 M20,32.8l-0.4-0.5l-0.4-0.2v0.4l0.5,0.5l0.7,0.5h0.4l-0.4-0.4L20,32.8z M20.6,48.5L19.9,49l-0.2,0.4l0.7-0.5L20.6,48.5z
		 M20.2,16.6v0.7l-0.4,0.9v0.5l0.5,0.5l0.7,0.4l0.5-0.2h0.5L22,20l-0.2,1.4l0.5,1.6l1.1,1.3l1.3,0.4l1.1-0.4l0.2-1.1l-0.5-1.1v0.5
		l-0.2,1.1h-0.9l-1.1-1.3l0.5-2l0.9-1.8l-0.5-0.5l-1.8,0.4h-1.3l-0.5-0.7L20.4,17l0.2-0.5h0.9l1.3,0.4l1.4-0.2l0.4-0.2l-0.9-0.4
		l-1.4-0.2l-1.4,0.2L20.2,16.6z M21.1,4.6l0.2-0.2L20.8,4L20,3.8l0.2,0.5L21.1,4.6z M23.1,63.2L22,61.8v-1.3l0.5-0.5l0.2-0.4
		l-0.5-0.2l-0.9,0.4l-0.7,0.5L20,61.1v1.4l1.4,1.6l1.8,0.9h1.3l0.4-0.2l0.2-0.4l-0.5-0.4L23.1,63.2z M21.3,88.1l0.2-0.2l0.7-0.2
		l0.2-0.2l-2.2-0.4v0.4l0.5,0.4v0.4L20.2,89l0.2,0.4l0.7-0.2l0.4-0.5L21.3,88.1z M20.9,41.1l-0.4-0.2v-0.2l-0.2,0.2l0.2,0.4h0.5
		L20.9,41.1z M22.7,73.9l-0.5-1.3v-0.9l0.5-0.5v-0.9L22,69l-0.2,0.5l0.4,1.1L22,70.8l-0.7-0.2h-0.4l0.7,2.2l0.9,1.3L22.7,73.9z
		 M22.6,80.7L21.8,81h-0.5l-0.2-0.5l0.2-0.5l-0.2-0.4V80l-0.2,0.5l0.2,0.5l0.7,0.2l0.9-0.4l0.4-0.5v-0.2L22.6,80.7z M21.3,37.5
		l0.4-0.4h-0.4l-0.2,0.4H21.3z M21.5,28l0.7-0.7l-0.4,0.2l-0.4,0.4V28z M21.7,29.9l0.2,0.2l1.3-0.2l0.2-0.2v-0.5L22.9,29l-0.7,0.4
		L21.7,29.9z M22,4.9V6l0.7,1.1l0.9,0.2l-0.7-0.5l-0.4-1.4l-0.4-1.1L22,4.9z M23.8,32.1l0.7-0.2v-0.4L23.6,31l-0.7-0.4l0.2,0.5
		L23.8,32.1z M23.8,12.7V13h0.5l0.2-0.4l-0.2-0.2L23.8,12.7z M24.5,39.5l0.4,0.4v0.4l0.2,0.2l0.4-0.4l-0.5-0.7l-1.1-0.5v0.2
		L24.5,39.5z M24,6.9l0.2-0.2V6.5L24,6.9z M26.2,47.6L25.8,47l-0.2-0.5l-0.7-0.4L24,46.3l0.4,0.5l1.1,0.5L26.2,47.6z M28.5,49.4
		L28.3,49l0.5-0.4h1.3l1.4-0.2l0.9-0.7l0.2-0.9l-0.4-0.5l-0.2-0.5h0.2l0.4,0.4v-0.9l-0.7-1.4l-1.3-0.5L29,43.8h-1.3l-0.7-0.4
		l-0.5,0.2H26l-0.5-0.2l0.4,0.2l1.8,0.4l0.7,0.4l1.8,1.1l0.9,0.9v0.9l-0.7,0.5l-0.5-0.4l-0.5-0.9h-0.5l-0.5,1.1L28,48.8l-0.2,0.9
		l-1.4,0.7l-1.6,1.3l-0.5,0.9l0.4,0.5l0.5,0.2v-0.2l-0.4-0.4l0.2-0.9l1.8-1.1l1.8-0.9V49.4z M25.1,33.7l-0.7,0.5l1.1,0.7l2.7-0.7
		l2.3-0.4l0.7,0.9l-0.4,0.5h0.4l0.5,0.2l0.4,0.5l-0.5,1.1l0.4,0.7l0.5,0.7l0.5,0.5l0.2,0.5l0.2-0.5l-0.2-1.4l-0.5-1.1l-0.5-0.7
		l-0.2-0.5l0.5-0.2l1.4,0.2l1.3,0.5l0.4,0.2l-0.4-0.4l-1.1-0.5l-1.6-0.7l-2.3-1.3l-2.3-0.5l-1.3,0.5L26,33.7H25.1z M25.3,110.7
		l0.4-0.7l0.2-0.7l-0.4,0.4L25.3,110.7z M25.8,8.3L26,9.8l0.5,1.1l0.5,0.5h1.3l0.7,0.4l0.2,0.5l-0.7,0.5l-1.3,0.5l-0.7,0.7v0.2h0.7
		l1.3-0.4l0.9-0.5l0.7-1.1l0.4-0.4l0.2-0.4h-0.5L29,11.4l-0.9-0.7l-0.5-1.1l-0.4-1.1l-0.2-1.1l0.7-0.9l1.1-0.9l1.1-0.7l0.5-0.7
		l-0.5-0.5l-0.7,0.5l-0.5,0.7l-0.5,0.5l-0.7,0.9l-0.9,0.9L25.8,8.3z M27.4,88.2l-0.9,0.5l-0.7,0.7v0.4l0.5,0.2l0.5-0.4l0.4-0.7
		L27.4,88.2z M27.2,75.1l-0.4,0.2l-0.4,0.4l-0.4,0.5L26,77.1v0.7h0.4l0.4-1.3l0.2-1.1l0.4-0.2h0.2L27.2,75.1z M30.7,66.3l-0.5-0.4
		l-0.9-0.4l-2.2-1.8l-0.5-0.4l-0.2,0.2V64l0.7,0.7l1.6,0.9l1.3,0.7l0.4,0.9v0.5l0.4-0.2l0.2-0.7L30.7,66.3z M26.7,27.1l0.7,0.2
		l-0.2-0.2l-0.7-0.2L26.7,27.1z M27.4,39.8l0.2,0.4l0.2,0.2L27.6,40l0.5-0.9l-0.4,0.2L27.4,39.8z M29.4,92.6l-0.2-0.2l-1.1,1.4
		l-0.5,0.5v0.4l1.4-1.4L29.4,92.6z M29.9,23.1l0.7,1.3l-0.5,0.5h-0.4l-0.4,0.2h-0.2l-0.5-0.2l-0.5,0.2h0.4l0.5,0.2h0.4l0.7,0.2
		l1.6,0.9l1.8,0.4l0.9-0.2l0.2,0.2h0.2l0.4-0.2l0.2-0.5h-1.1l-1.1-0.2l-0.7-0.7v-1.8l-0.2-2.3l-0.7-1.1l-0.7,0.5l-0.5,0.5l-1.1,0.5
		L28.9,22L29.9,23.1z M28.3,58.7v0.2h0.5v-0.2H28.3z M29.4,80.3l-0.5-0.7l-0.2-0.2l-0.4,0.4l0.2,0.9l0.7,0.4L29.4,80.3z M29,105.2
		h0.5l-0.2-0.2H29V105.2z M29.8,52.4h0.2l-0.2-0.5h-0.2L29.8,52.4z M31.9,61.4L31,61.3l-0.5-0.4h-0.2v0.2l0.2,0.2v0.2l0.5,0.2h0.9
		V61.4z M30.7,8.7v0.5l-0.2,0.2l1.1-0.5V8.2h-0.7L30.7,8.7z M32.3,54.8L31,55.1v0.4l1.3-0.2L33,55L32.3,54.8z M33.5,76.2l-0.9-0.7
		l-0.2-0.7l0.2-0.7v-0.7l-0.5-0.4l-0.7-0.2L31,72.9l0.4,0.2l0.4,0.9l0.5,1.3l0.2,0.5l0.5,0.4l1.1,0.5L33.5,76.2z M32.1,28.5h2.2
		l0.4,0.4v0.4l0.2-0.4l-0.2-0.5l-0.4-0.9h-0.5l-1.3,0.4l-0.9,0.5L32.1,28.5z M33.5,53.7l-0.7-0.5h-0.4l0.5,0.5l0.7,0.5h0.2
		L33.5,53.7z M32.8,64.5v0.2l0.4-0.2l0.2-0.4h-0.2L32.8,64.5z M34.6,46.3l-0.9,0.4l-0.2,1.1l0.2,1.4l0.2,1.3h0.7l0.7-0.9l0.7-0.4
		l0.5,0.4l1.1-0.2l0.9-1.3v-1.3l-0.7-0.2L37,47l-1.1-0.4L34.6,46.3z M35.9,57.7l0.4-1.8L37,55l0.2-0.7v-0.5l0.5-0.2v-0.4h-0.9
		l-0.4,0.9l-0.4,0.7l-0.9,0.4l-1.1,0.5l-0.5,1.1l0.4,1.1l1.3,0.9L35.9,57.7z M34.6,11.6l1.6-0.7L38,9.8l0.2-1.1l-1.4-0.9h-0.7
		L36.6,8v0.2l0.2,0.5l-0.4,0.4l-0.9,0.2l-1.3,0.5L33.7,11L34.6,11.6z M35.3,44l0.2-0.5L35,42.9v-0.5l-0.2-0.5l-0.7,0.5l0.2,1.1
		L35.3,44z M35.9,98.5l0.2-0.5l-0.2-0.5h-0.4l-0.7,0.2L34.6,98l0.9,0.2L35.9,98.5z M35.2,71L35,71.1h0.2l0.4-0.4L35.2,71z
		 M35.2,21.1l0.4,0.4l0.4-0.4l-0.2-0.7h-0.5V21.1z M36.8,59.8l-0.7,0.4l-0.5,0.5v0.5l0.4-0.4l1.8-0.7l-0.2-0.4H36.8z M36.1,23.6
		l0.5-0.4l-0.4-0.4l-0.5,0.4L36.1,23.6z M38,82.7l-1.3-1.3l-0.4-0.7l-0.2-0.5l-0.2,0.4l0.4,0.9l0.9,1.8l0.4,0.4l0.7,0.5l0.7,0.2
		l-0.2-0.5L38,82.7z M36.4,31l0.4,0.4l0.2,0.5h0.4V31l-0.7-0.2L36.4,31z M37,27.4l0.2,0.5l0.9,0.4l1.3-0.4v-0.7l-0.9-0.9l-0.7-0.5
		l-0.5,0.7L37,27.4z M38.4,15.5l0.5-0.4v-0.7l-0.7-0.4h-0.5l0.5,0.2l0.4,0.4l-0.2,0.5V15.5z M39.3,35.9L38,36.2l0.5,0.2l1.3-0.2
		l0.7-0.7l0.5-0.4l1.4,0.4v-0.2L42,35l-0.5-0.5l-0.2-0.4l-0.4-0.2v0.5l-0.2,0.7L39.3,35.9z M39.7,17.2h-0.2l-0.7,0.4l-0.4,0.7
		l0.5,0.4l0.7,0.2l-0.2-0.4l-0.4-0.5L39.7,17.2z M38.4,57.5l1.1,0.9l1.3,0.2l0.5-0.2L40.9,58L40,57.3l-1.3-0.7L38.4,57.5z M46,42.5
		l-0.5-0.4h-1.8l-2.2,0.4l-1.3-0.9v-1.4L40,39.7l-0.7,0.9L38.8,42l0.2,1.6l1.4,1.1l1.6,0.5l1.4,0.2L44,46l-1.3,0.7l-1.1,0.5l0.9,0.2
		l1.1-0.5l0.4-0.5l0.5-0.2l0.5,0.4l0.2,0.4h0.2l-0.2-0.5l-0.2-0.7v-1.3l0.4-1.1L46,42.5z M39.5,65l0.5,0.2l-0.4-0.4l-0.5-0.4h-0.2
		L39.5,65z M41.3,30.8l-0.4-0.5l-0.5,0.2l0.4,0.5L41.3,30.8z M41.8,53.5L41.5,53l-0.2-0.4l-0.4-0.4l-0.5,0.4l0.2,0.7l0.9,0.7
		l0.5,0.5l0.2-0.4L41.8,53.5z M40.7,68.6l-0.4,0.2h0.9l0.9-0.4l-0.4-0.2L40.7,68.6z M41.3,50.3v-0.5l-0.2,0.2v0.5L41.3,50.3z
		 M41.6,85.2l-0.5,0.4l0.2,0.2l0.7-0.4L41.6,85.2z M41.8,94.7l-0.4-0.4l-0.2,0.4l0.4,0.4L41.8,94.7z M41.8,4.9l0.5,0.5V4.6l-0.2-1.1
		l-0.5-0.2l-0.2,0.4L41.8,4.9z M41.5,26.3l0.2,0.2l0.4-0.2l1.6,0.9l1.4,0.2h2.5l1.1,0.4h0.2l0.2-0.2l-0.4-0.4l-0.5-0.2l-0.4-0.2
		l-0.4-1.1l-0.9-1.1L46,24.9l0.2,1.1l-0.9,0.7l-1.6-0.2l-1.1-0.4L41.8,26L41.5,26.3z M47.6,87l1.1-0.4l0.5,0.4l0.2-0.2l-0.5-0.7
		l-1.3-0.2l-1.4,0.7L44,88.2l-0.5,0.5l-0.5,0.9l-0.5,0.5h0.7l0.4-0.5L44,89l0.7-0.7l1.3-0.5L47.6,87z M42.9,63.6l0.5,0.2v-0.2
		l-0.4-0.2L42.9,63.6z M42.9,74.8l0.7-0.4l0.2-0.2l-0.7,0.2L42.9,74.8z M44.5,55.5l-0.7,0.4l0.4,1.4l1.4,1.1l1.6,0.4l1.1,0.5
		l0.5,0.2h0.7l1.4-0.7l0.5,0.4l1.3,1.1l2.3,0.9l2.7,0.5l1.4,0.2l0.4,0.2l0.4,0.4h0.4v-0.5l-0.7-1.3l-1.4-0.9l-1.3,0.2h-1.1l-0.7-0.7
		l-0.2-0.7l-0.2-0.2h-2.2l-2.3,0.4l-0.9,0.4l-1.3-0.4l-1.6-1.1l-1.1-0.9L44.5,55.5z M45.2,48.5l-0.5,0.7l-0.2,1.3L44,51.5l0.2,0.2
		l0.9-0.2l0.4-0.9l0.5-1.3l0.5-0.9l-0.4-0.4L45.2,48.5z M44.2,15.2l0.5,0.2l0.2-0.4l-0.5-0.2L44.2,15.2z M44.5,13v-0.5l-0.2,0.4
		L44.5,13z M45.2,71.1l0.5-0.2l-0.7-0.2L44.5,71L45.2,71.1z M47.6,29H47l-1.8,1.1l-0.5,0.7l1.1-0.2l1.1-0.9L47.6,29z M46.3,8
		l0.9,0.5l0.5,0.9l0.5,0.7l1.1-0.7l0.2-1.3l-0.7-0.7l-0.9-0.2h-0.5L46,6.9l-0.2,0.5L46.3,8z M46.5,54.1H46l0.5,0.2h0.2L46.5,54.1z
		 M47,76.4l0.2-0.5l-0.5-0.7L46,75.3l0.2,0.7l0.5,0.4H47z M46.3,62l1.3,0.2l0.4-0.2l-0.5-0.5h-1.1V62z M51.4,43.1L51,42.5l-2,0.4
		l-1.4,0.7l-0.7,0.5v0.4l0.4,0.2l0.2-0.4l0.2-0.5h2.5L51.4,43.1z M47.6,21.7l0.9-0.4v-0.2l-0.9,0.4L47,21.8L47.6,21.7z M47.8,101
		h-0.4l0.4,0.4l0.9,0.5v-0.2L47.8,101z M54.2,97.2l0.9-0.7L56,96l0.2-0.7h-0.5l-0.7,0.9l-0.4,0.4l-0.4-0.2l-0.5,0.4l-1.4,0.7
		l-2.2,0.4L48.5,98l-0.7-0.2L47.6,98l0.9,0.4l1.3,0.4l0.5,0.4l0.5,0.5l0.4-0.9l1.1-0.4l1.1-0.2L54.2,97.2z M48.3,56.2L48.1,56h-0.4
		l0.2,0.4L48.3,56.2z M51,90.8l-0.7-0.2l-0.5-0.7v-0.5l0.4-0.4l0.4-0.2l0.2-0.4h-0.2l-0.5,0.4l-2.2,1.1v0.9l1.1,0.5l1.8-0.2h1.8
		l-0.5-0.4H51z M49.4,5.3L49,4.4l-0.4-1.1l-0.2-0.4l-0.4,0.4v1.1l0.7,0.9H49.4z M48.1,29l1.1,0.5l1.6-0.2l1.1-0.7h-0.2l-0.9,0.5
		l-1.4,0.2L48.1,29z M48.1,46.7v0.2l0.5,0.2v-0.2L48.1,46.7z M48.3,15l0.2,0.4l0.2-0.7v-0.7l-0.4,0.2V15z M48.8,39.1l-0.5,1.1
		l0.4,1.1l0.5,0.2l0.4-1.3v-1.3L48.8,39.1z M50.1,77.4l-0.5-0.4H49l0.2,0.4H50.1z M49.2,65.9l0.5,0.2l1.6,1.6l0.7,0.5l0.2,0.2
		l0.2-0.4l0.2-0.2l1.1,0.4l1.3,1.3l0.7,1.4l-0.2,0.7l-0.4,0.5l0.2,0.4l0.4,0.2l0.2-0.4l0.7-0.7l0.9-0.7v-0.7l-0.9-0.9l-1.6-1.3
		l-1.6-1.6l-1.4-1.8l-1.6-0.4l-1.1,0.9V65.9z M49.6,80.3l0.4,0.2L49.6,80.3z M54.4,35.5l-0.4-0.4l-0.4-0.7l-1.1-2.5l-0.7-0.5h-0.7
		v0.4l0.7,0.2l0.4,0.5l0.2,1.1l0.7,1.3l0.9,0.9l0.5,0.2l0.2-0.4H54.4z M52.8,71.3l-0.2,0.2v0.4l0.2,0.5l-0.2,0.5L51.9,74l-0.4,1.1
		l0.4-0.4l0.9-0.7l0.4,0.2v0.5l0.2-0.5L53,73.1v-0.2l0.2-0.4L53,72.2l0.4-0.7v-0.4L52.8,71.3z M52.4,61.8l-0.7-0.2l0.2,0.4
		L52.4,61.8z M56.7,43.1l0.2-0.4h-2l-0.5-0.4l-0.4-0.2l-0.2-0.7l-0.2-1.1L53,39.7l-1.1,0.7l0.2,1.1l1.1,0.9l0.9,0.5l0.2,0.9l0.4,0.5
		l0.9-0.5L56.7,43.1z M53.3,21.1l-0.7,0.2v0.9l0.9-0.4L53.3,21.1z M53,118.3l-0.4,0.4v0.5l0.5-0.4l0.2-0.5H53z M53.9,2.9l0.7,0.2
		l0.7-0.2l0.5-0.2l-0.5-0.4l-1.1-0.2h-0.9v0.2L53.9,2.9z M54.1,102.1v-0.2h-0.5v0.4L54.1,102.1z M53.9,104.4v0.4l0.5-0.2v-0.4
		L53.9,104.4z M54.6,25.4h0.5l-0.7-0.2L54.6,25.4z M55.7,48.3v-1.1l-0.4-0.5l-0.9,0.7v0.7l1.6,0.4L55.7,48.3z M57.8,31.2l-0.2-0.4
		l-0.9-1.1l-1.1-0.5l-0.5,0.5l-0.2,1.4l-0.2,1.3l0.2,0.2l0.4-0.4l1.8-1.1H57.8z M58.6,51.5l-1.1-0.4l-0.9,0.2l-0.7,0.2l-0.4,0.2
		h-0.2l0.2,0.4l1.1-0.2l1.1,0.2l0.4,1.1v1.1l0.7,0.5l1.1-0.2l0.4-0.7L59.6,53L58.6,51.5z M55.8,9.6l0.7,0.5V10l-0.2-0.4l-0.2-0.7
		V7.6l0.9-1.1l0.5-0.7L56.6,6l-1.1,1.6L55.8,9.6z M56.7,65.4l0.4-0.2l-0.5-0.9L56,63.6v0.9L56.7,65.4z M56.7,79.2l1.1,0.2L56,78.7
		L56.7,79.2z M56.2,37.1l0.5-0.4l0.2-0.4L56.2,37.1z M59.3,20.9l-0.2-0.5l-1.3,0.2l-1.1,0.5l-0.4,0.7h1.4L59.3,20.9z M56.6,75.1
		l0.2,0.2l0.9-0.2l1.3,0.4l1.3-0.2l0.5-0.5l-1.1-0.2l-1.8,0.2L56.6,75.1z M57.8,107.5h-0.2l-0.4,0.4l0.2,0.2l0.4-0.2V107.5z
		 M58.4,16.4l0.4,0.2h0.2L58.4,16.4z M58.9,38.8l-0.2,0.2l-0.4,0.7V40l0.7-0.2l0.2-0.7L58.9,38.8z M59.3,84.8l0.2-0.4l-0.4-0.2v0.2
		L59.3,84.8z M60.2,86.3h0.4l0.5-0.5h-0.4L60.2,86.3z M60.7,90l0.2-0.4l0.2-0.5l-0.2,0.2l-0.4,0.5L60.7,90z M84.6,72.9v0.9l0.7,1.1
		l-0.5,0.7l-0.5-0.2l-0.4-0.4h-0.7l-0.4,0.5l0.7,0.7l1.6,1.1l0.4,1.4l-1.4,0.7l-1.4-0.2l-0.2-0.7l-0.2-0.5l-0.7-0.4L81,77.4
		l-0.2,0.4l-0.2,0.7l-2.5,0.2l-3.1,0.4l-1.3,0.5l-0.4,0.2L72.9,80h-1.3l-1.6-0.5L69,78.9l-0.4-0.5l-0.4-0.7v-1.8l0.2-2.3l0.2-3.1
		l0.4-2l1.1-0.2h1.1l0.2-0.5l-0.9-0.9l-0.5-0.9l1.3-1.6l2.2-1.1l2.2-0.4l2.3,0.2l1.8,0.7l0.4,0.9l-0.7,0.7l-1.1,0.2l-0.9-0.2
		l-0.9,0.5l0.4,0.7l2.3,0.4l2.2,0.4L81,67.9L78.9,69l-0.4,0.4l0.2,0.5l-0.2,0.5L77.8,71l-1.1-0.2l-0.2-0.7l0.4-0.7v-0.5l-0.7-0.2
		l-1.4,1.1l-1.3,0.9l-1.1,0.5l-0.7,0.7l0.2,0.4h2.9l1.3,0.2l0.5,0.2v-0.4l0.9-0.4l1.3-0.5l0.7-0.7l0.7-0.5l0.5,0.2l0.4,0.4l0.2-0.4
		l0.5-0.5l0.9,0.2l0.9,0.4v-0.2L83,69.5l-0.2-1.1L82.7,67l0.2-1.3l0.5-1.1V64l1.3-0.5h1.8l0.7,0.7l0.4,0.7l0.5-0.4l1.4-0.5l2.9,1.4
		l2,1.3h-3.2l-1.8,0.7l-0.7,0.9l-0.4,0.9l-0.9,0.5l-0.9,0.9l-0.7,1.3L84.6,72.9z M118.7,125.9l-2.5,0.5l-2-0.2l-1.3-0.5v-0.4
		l0.5-0.5v-0.2l-0.5,0.5l-1.1,0.7l-2.2,0.4l-4.1,0.2h-2.3l-4.1,0.2h-5.4l-2.7-0.5l-1.6-0.5l-1.6,0.2l-3.1,0.4l-2.2,0.2l-3.2,0.2h-2
		l-2.5-0.2l-2.9-0.7l-2-1.3l-1.1-2.5l-0.4-3.2l-0.2-2.7v-2.2l0.4-2l0.4-1.1l0.5,0.4l0.4-0.7l-0.5-1.3l-0.9-2.2l-0.2-2.2l0.4-2.2
		v-2.9l-0.2-3.1L68.3,94l0.5-2.2l0.7-1.4v-0.9l-0.9-1.3l-0.4-2.5l1.1-2.3l2.5-1.4l2.7-0.7l1.3,0.2l0.5,0.5L76,81.4l0.4-0.5l1.4-0.4
		l1.1,0.5l0.2,1.1L78.7,83l-0.4,1.4l-0.2,1.4l0.9-0.5l0.9-1.4l0.9-0.4l0.5,0.4l0.2-0.2l1.1,0.2l2,0.4l1.8,0.7l0.7,1.1L86.8,87h-0.4
		l-0.2-0.5h-0.5l-0.4-0.2h-0.5v1.1l0.9,1.3L85.2,89l-2-0.7l-1.8-0.9L80,87.2l-0.9,0.9l0.2,1.1l1.3,0.7l0.9,1.3l0.9,1.4l0.9,1.1v3.8
		l-0.4,1.4L81.9,99l-0.4-0.5H81l-0.5,0.7l-0.4,0.5h1.6l1.1-0.2l0.9-0.7l0.2-0.9l-0.2-0.9v-4.7l0.9-0.9l2.3-1.6l1.3-0.7l1.1-0.5
		l0.4-0.5l-0.5-0.9l-1.4-1.6l-0.9-2l0.5-1.4h0.5l0.4,1.1l0.7,0.7l0.4-0.2l0.2-0.4l2.2-1.1l0.7-0.7l0.7-0.4l0.2,0.4l-0.2,0.7
		l-0.5,0.5l-0.7,0.4l-0.7,1.4l0.2,2v1.6l-0.2,1.1l0.7,1.1l0.4,0.9l-0.5,0.9l-1.1,0.5L90,92.4l-0.5-0.7h-1.3l-0.9,0.9v0.7l0.5,0.7
		l0.4,0.5l0.9,0.4l0.7,1.1v1.6l-0.7,0.9l-1.3-1.3L87,96.9l-0.4-0.7l-0.2-0.5l-0.5-0.2v2l0.9,0.9l0.9,1.4l1.3,0.7l1.4-0.4l0.9-0.5
		l1.1-0.4h2l2.2-0.9l1.3-1.6L97.6,96l-0.7,0.9L96.2,98l-1.1,0.4h-1.6l-0.5-0.9l0.9-0.9l1.3-0.7l0.5-1.1L95.3,94v-0.7l1.4-0.4l2-0.2
		l1.4-0.4l0.7,1.4l-0.2,2.5l-0.7,2l-0.5,1.8l0.5,1.8l1.1,1.6l0.5,1.6l0.9,3.6l-0.7,0.2l-0.9-0.5l-0.9-0.9l-0.7-1.1l-0.4-0.9
		l-0.4-0.7l-1.1-0.2l-1.1-0.4l-0.5-0.9l-0.9-0.5L94,103l-0.5-0.5l-0.4,0.4v0.4l-0.2,0.7l-0.9,1.4l-0.7,1.4l0.9,1.6l0.9,2L94,112
		l1.4,0.4l0.9-1.4l-0.2-2.3v-1.8l0.4-1.1l0.9-0.5l0.7,0.5l-0.5,1.1l-0.9,1.3l0.4,0.5l0.9,0.2l0.2,0.4l0.2,0.2l0.9-0.4h1.1l1.1,0.7
		l2.2,3.4l0.9,0.4l1.1-1.1l1.4-1.1l1.1,0.4l-0.7,2.2l-0.9,1.6v0.5l0.2,0.2h0.5l0.7-0.4l0.9-1.3l0.9-1.6l0.9-0.7l0.4-0.2l1.3-1.3
		l0.9-1.6l0.4-1.1l1.3-0.7l2.2,0.2l1.8-0.2l0.7-1.4l0.2-1.1l1.1-0.4l1.1-1.4l0.9-1.4l0.5,0.9v3.6l0.4,0.7v1.3l-0.4,0.9l-0.2,0.9
		l0.2,0.7l0.4,0.7l-0.2,0.5l-1.3,0.2l-1.8,0.2L119,112v-0.9l-0.2-0.5l-0.7,1.1l-0.7,1.6l-0.2,1.3h1.1l2-0.5l1.4-0.9h0.9l0.7,0.9v0.5
		l-0.5,0.2l-0.7,0.4l0.7-0.2l0.5,0.4l0.4,0.9l-0.4,0.9l-0.5,0.9v1.1l0.2,2l-1.4,2.9L118.7,125.9z M69.5,40.6l-0.2-0.9l-0.5-0.5
		l-0.4-1.6v-7.6l1.1-2.9l1.3-1.1l-0.5-0.9l-1.1-1.6l-0.5-1.3l0.2-0.9l0.2-0.5V20l0.2-0.9l0.5-0.7l0.5,0.4l0.7,0.9l0.9,0.7v-0.7
		l-0.7-0.9l-0.9-0.4l-0.4-0.4l-0.4-0.7v-1.4l0.4-2.3l0.7-2.3l1.1-2l1.8-2.2L76,4.6l3.6-2L83,1.5l2.3-0.4l2.7-0.4l3.4-0.2l3.2-0.2
		l11.2-0.2l6.5,0.4l3.2,0.5l3.4,1.8l2.3,3.2l0.5,3.1l0.2,2.9l-0.2,3.6V19l-0.2,3.4v3.4l-0.2,6.5l-0.2,2.7l-0.2,2.2l-0.7,2.3
		l-0.7,1.3h-0.4l-0.7-0.7l-0.2,0.2l0.2,0.5l0.2,0.2h0.4l0.2,1.1l-0.2,2.2l-0.7,2.3l-1.1,1.1l-0.9,0.2l-1.3,0.2l-1.4,0.7l-0.7,0.5
		h0.9l1.3-0.5l1.1-0.4l0.5,0.5l-0.7,1.3l-1.4,1.4l-1.8,1.3l-2.5,0.7l-3.1,1.1l-2.2,0.9H101L98.7,56l-2.9,0.5l-2.2-0.4l-0.9-2
		l-0.2-1.8l0.5-0.4l1.4,0.4l2,0.4l0.9-0.4l-0.7-0.5l-1.3-0.2l-0.7-0.2l-0.9-0.2l-1.4-0.2l-0.9-0.7l-0.2-0.7l-0.2-0.4v0.4l-0.9,0.4
		l-2-0.7l-2.3-1.3l-1.4-1.3V46l1.4,0.4l1.3,0.7l0.2-0.2l-0.5-0.5l-1.6-0.9l-2.9-0.5l-2.5-0.2L79.1,44l-0.2-0.4l-0.2,0.7v0.7l0.2,0.2
		l0.4-0.2l0.9,0.4l1.8,1.1l2.2,1.8l0.5,1.1l-0.7,0.4l0.5,0.5l2,0.7l2.5,0.5l1.3,0.9l-0.4,0.7l-0.2,0.9l0.5,0.7l0.9,0.4l0.4,0.7
		l-0.7,0.5l-0.5-0.5l-0.4-0.5l-0.5-0.2l-1.3,0.5l-2.2,0.9l-2.5,0.7h-2.5l-1.8-0.4l-0.7-0.4l-0.7,0.2H76l-2.3-0.2l-2.2-0.4l-1.1-0.7
		v-0.7l0.5-0.2l-0.4-0.7l-1.1-1.6l-0.2-1.6l-0.2-1.3l-0.4-1.4l0.2-1.4l-0.2-0.7v-1.4l0.5-2.2L69.5,40.6z M74.9,87.2l1.1-1.6
		l-0.4-1.6l-0.9-0.7h-0.5v0.4l0.2,1.1v1.1l-0.9,1.1l-1.3,0.7H71L70.2,87l0.4,0.7l0.7,0.2h1.6L74.9,87.2z M71,92.7v-0.2L70.8,92v0.5
		l-0.2,0.4l-0.2,0.2h0.4L71,92.7z M71.7,13l-0.2,0.4l0.4-0.2l0.4-0.7L71.7,13z M72.4,37l-0.9,0.5l0.2,0.5l1.1-0.5L72.4,37z M72,47.8
		h0.5L72.4,47l-0.5-0.4L71.7,47L72,47.8z M71.9,40.6l0.9,0.4l1.4,0.2l0.5,0.2h0.4l-0.2-0.2L74,40.6H71.9z M73.1,29.9l1.8-1.3
		l1.3-2.5l-0.4-1.1L74,26.3l-1.6,2.2L72,29.8L73.1,29.9z M74.2,18.2h0.4v0.4l0.2,0.2v-0.9l-0.9-1.3l-0.9-0.4l0.2,0.9l0.7,0.9
		L74.2,18.2z M75.5,113.8l-0.4-0.5l-0.7-0.7V112l-0.2-0.5l-0.5,0.2l-0.4,1.1l0.4,0.7l1.1,0.2L75.5,113.8z M76.2,34.1l2-0.7l1.6-0.2
		l0.9-0.2h2l-0.4-0.5l-0.9-0.9l-0.7-0.9l-1.3-0.4l-0.4,0.4l1.1,0.9l0.5,0.7l-0.4,0.5L79.6,33l-2.7-0.9L74.6,31H74l-0.5,0.9V33
		l0.5,0.5l0.2,0.4l0.5,0.4L76.2,34.1z M74.9,92.9l-0.7-0.7L74,91.5l0.4-0.7l0.2-0.5l-0.2-0.5v-0.4l-0.2,0.2V90l0.2,0.2L74,90.8
		l-0.5,1.1l0.2,1.4l0.7,1.3l0.7,0.4l0.4-0.9L74.9,92.9z M75.3,77.3l-0.5-0.4h-0.9v0.4l0.7,0.4h0.7l0.4-0.2v-0.2H75.3z M75.8,49.6
		l-0.2-0.2h-0.7l-0.5,0.5l0.5,0.7l0.9,0.5l0.7,0.4l0.2,0.4l0.7-0.5l0.7-0.7l-0.9-0.5L75.8,49.6z M80.9,72.2L80,72.9l-1.4,0.9
		L76,74.2l-1.1,0.2l0.5,0.7l1.8,0.5l2.2-0.2l2-0.9l1.1-1.3l-0.4-0.9L80.9,72.2z M76.5,45.8l-0.7-1.1l-0.2-0.9l0.5-0.2l0.4-0.4
		L76,42.9l-0.5-0.2l-0.2,0.2l0.2,0.4l-0.2,0.4l-0.2,0.9l0.4,1.3l0.9,0.7l0.9,0.2l0.5,0.2l0.2-0.2l-0.7-0.4L76.5,45.8z M76.5,101.7
		l-0.2-0.4l-0.5,0.2l0.4,0.5L76.5,101.7z M76.4,38.4l0.2-0.5l-0.2-0.2L76,37.9v0.4L76.4,38.4z M78.7,15.9l1.8-0.2l0.9-0.5L80.9,15
		L80,14.5l-1.4-0.4h-1.6l-0.5,0.4l0.9,0.7L78.7,15.9z M77.4,106.2l-0.2-0.2v0.4l0.4,0.2L77.4,106.2z M79.8,27.1l0.9-0.9v-0.5
		l-1.3,0.2l-1.3,0.9l-0.5,1.1v0.5l0.9-0.2L79.8,27.1z M81.2,39.7L81,39.1l-0.4-0.5h-0.5v0.2l0.5,0.4l-0.2,0.4L80,40.2l-0.7,0.4
		l-1.1,0.2l-0.5,0.4l0.7,0.2l1.1-0.2l0.9-0.4l1.1-0.2l0.4-0.4L81.2,39.7z M78.3,115.1l-0.4-0.7l-0.2-0.9h-0.2v0.9l0.7,1.4l0.7,0.9
		v0.5l0.2,0.4l0.2-0.2l0.2-0.5l-0.4-0.9L78.3,115.1z M78,20.2v0.2l0.5-1.1l0.4-0.9v-0.2l-0.7,0.4l-0.4,0.5v0.5L78,20.2z M77.8,52.4
		v2l0.4-0.4l0.5-1.4l0.2-0.9h-0.5L77.8,52.4z M78.5,94.7h0.2v-1.3l-0.4-0.9v0.7L78.5,94.7z M82.1,19.5L80,21.1L79.8,22l2.2-1.1
		l1.8-1.4l0.7-0.9h-0.4L82.1,19.5z M81.2,54.6l-0.5,0.5h0.5l0.4-0.5l-0.2-0.4l-0.2-0.2V54.6z M81.2,111.8l0.4,0.2l-0.2-0.4
		L81.2,111.8z M81.9,81.4l0.7,0.5v0.7l-0.7-0.5V81.4z M83,103.5l1.6-0.5l1.4-0.7l0.4-0.7h-2.2l-1.6,0.2l0.5,0.5l-0.7,0.9l-0.4,0.7
		h0.2L83,103.5z M82.7,36.4v0.7l0.5,0.9v-0.7L82.7,36.4z M83,52.8l0.2-0.4h-0.4l-0.2,0.2L83,52.8z M83.4,24.5l0.2,1.1l0.7-0.7
		l0.4-1.6V22l0.4-0.4l0.5-0.4v-0.5l-0.2,0.4l-0.5,0.4l-0.7,0.4l-0.5,0.9L83.4,24.5z M83.9,17.2v-0.4l-0.2,0.4l-0.2,0.2L83.9,17.2z
		 M83.6,54.8l0.4,0.4l0.2-0.2L83.6,54.8z M95.3,35.7l-0.2-0.2l-0.9,0.2L93.1,35l-0.9-1.8v-1.8l0.5-1.1l0.9-0.5l1.6-0.4l0.9-0.7
		L96,28.1h-0.2l-0.5,0.4l-0.9,0.2l-0.7-0.9l-0.9-1.1l-0.9-0.4l0.4,0.4l0.5,0.7l-0.2,0.7l-0.7,0.2L90.9,28v0.2l0.9,0.5l0.7,0.9
		l-0.4,0.5l-1.3,0.2l-1.4,0.4l-1.1,0.5l-0.7,0.5l-0.4-0.2l-0.2-0.9l0.2-0.9l0.5-0.9L87.7,28l-0.9,0.2l-0.5,1.1l-0.5,0.5l-0.9-0.4
		l-0.7-0.2l0.7,1.6l2.2,1.6h1.8l1.3,0.2l1.1,1.1l0.9,1.4l1.3,0.9l1.3,0.2L95.3,35.7z M84.8,122.3h-0.4l-0.4,0.7l0.2,0.7l0.7-0.4
		l0.2-0.5L84.8,122.3z M86.3,66.5h0.4v-0.2l-0.5-0.4h-1.6l-0.2,0.2l0.4,0.5l0.9,0.4l0.4-0.4L86.3,66.5z M85.2,36.8l-0.4,0.5v0.9
		l0.2,0.7l0.4,0.2h0.5l-0.5-0.2L85,38.6l0.2-0.4l0.4-0.5v-0.5L85.2,36.8z M90,120.3l-0.9-0.5l-1.4-0.4l-0.7-0.5v-0.7l0.4-0.9
		l-0.5-0.5l-1.1-0.4h-0.9l0.5,0.2l0.7,0.5l0.2,0.4h0.4v0.4l-0.2,0.7l0.4,0.5l0.7,0.5l1.1,0.9l0.9,0.7L90,121V120.3z M85.9,111.3
		h-0.4l-0.4,0.4l0.2,0.5l0.5-0.4V111.3z M86.4,22.7h0.4l0.5-0.2h-0.9V22.7z M90.4,35l-1.1-0.4h-1.1l-0.5-0.2l-0.2-0.2H87l-0.4,0.9
		l0.7,1.8l1.8,2.2l0.4,0.4h0.2v-0.5l0.2-0.7l0.2-0.5l0.4-0.4l0.9-0.5v-1.1L90.4,35z M87.5,54.2l0.7-0.7v-0.4l-0.7,0.5l-0.2-0.2
		l0.4-0.9v-0.5L87,52.4l-0.2,1.3L87.5,54.2z M87.2,76.5l0.2-0.2l0.4,0.4l-0.2,0.2L87.2,76.5z M87.9,95.6l0.2-0.2l-0.2-0.2l-0.4,0.4
		H87.9z M87.5,108.2v0.2h0.5l-0.2-0.2H87.5z M88.1,12.7l0.4-0.2l0.2-0.5l-0.4-0.5h-0.4v0.7L88.1,12.7z M87.9,22l0.5-0.4l0.9-0.2
		l0.7,0.2l0.2,0.5l0.2,0.2l0.2-0.4l-0.2-0.4v-0.4l0.4-0.4h-0.9l-1.3,0.4L87.9,22z M88.2,111.1v0.4l0.2,0.2l-0.5,0.4l0.2,0.5h0.5
		l1.1-0.5l0.4-0.9l-0.7-0.9l-0.9,0.2L88.2,111.1z M88.6,42.7v0.7l0.7,0.4v-0.7L88.6,42.7z M89.9,80L89,79.2l-0.4-2l0.2-1.8v-2.7
		l0.5-0.5l0.9,0.7l0.5,1.4l0.5,1.8l0.4,1.4l-0.7,1.4L89.9,80z M89.7,113.8l-0.2,0.4l0.4-0.5v-0.4L89.7,113.8z M91.1,49.4L90.9,49
		l0.9-0.9l1.3-1.6l0.4-1.6l-0.9-1.8l0.5-0.5l0.9-0.2l0.2-0.2h-0.9l-0.7-0.7L92,40.7l-0.4-0.5l-0.2,0.2l-0.2,0.5l0.2,1.3l0.4,1.8
		l0.2,0.7l0.4,0.5l-0.9,1.3l-1.1,0.4L90,46.3l0.2-0.2V46H90l-0.2,0.5l0.2,1.4l0.5,1.1L91.1,49.4z M90.6,103.9l-0.5,0.2h0.4
		L90.6,103.9z M95.4,116.5l0.4-0.7h-0.7l-0.7,0.2h-0.5v0.5l-0.4,0.2l-1.3-1.3l-1.3,0.5l-0.7,1.4l1.1,0.4l2.3-0.5L95.4,116.5z
		 M90.9,122.6l-0.5,0.7l0.5-0.2V122.6z M92.2,67.9l0.5,0.5l-0.2,1.8L92,70.1l-0.7-1.3v-0.5L92.2,67.9z M91.7,124.8h-0.2l0.2,0.4
		l0.2,0.2l0.2-0.2L91.7,124.8z M92.6,18.2l1.1-0.2l0.7-0.4l-1.4-0.4l-1.3,0.4L92.6,18.2z M92.2,84.1l0.4-0.4h0.5l-0.4,0.4H92.2z
		 M93.5,106.6l-0.5-0.2l0.9-0.5l1.1-0.2l-0.2,0.4L93.5,106.6z M93.5,94.9l0.2,0.5v0.4L93.5,96l-0.2-0.2v-0.7L93.5,94.9z M94,120.1
		h0.5v-0.2l-0.7-0.4h-0.5v0.4L94,120.1z M93.6,124.4l0.2,0.5h0.4l0.2-0.5l-0.4-0.4L93.6,124.4z M95.6,74.4h-1.3L94,73.7l0.7-0.7
		l0.7,0.2l0.2,0.2l0.4-0.2l0.4,0.4l0.2,0.5L95.6,74.4z M96,45.2l-0.4-0.2l-0.5-0.5L94.7,44l-0.2,0.5l0.5,0.5L96,45.2z M97.2,13
		l0.4-1.1l-1.1,0.4l-1.3,1.1l0.4,0.5L97.2,13z M95.8,64.5L95.4,64l0.4-0.4l1.1,0.2l0.9,0.9l-0.2,0.7h-0.7L96.5,65L95.8,64.5z
		 M99.8,82.1l-0.9,0.7l-1.4,1.1l-0.9,1.3l-0.7,0.2L95.4,85l0.5-0.9l1.1-1.6l1.8-0.7L99.8,82.1z M97.2,118.8v1.1l-0.4,0.7l-1.4,1.4
		v0.4l0.2,0.2l0.2-0.4l0.4-0.5l0.9-0.4l0.4-0.7l0.4-0.9l-0.2-0.5L97.2,118.8z M96,4.6h0.4V4.2h-0.5l-0.2,0.2L96,4.6z M95.8,49.9
		l0.7,0.2l-0.2-0.9L95.6,49L95.8,49.9z M95.8,16.8l0.2,0.4l0.5,0.2l0.2-0.4l-0.2,0.2L96.2,17L96,16.6L95.8,16.8z M98,40.2l-0.7,0.2
		l-0.9,0.7l-0.2,0.5h0.5l0.7-0.7L98,40.2z M107,47.4l-0.4-0.9l-1.1-1.1l-1.1-0.4l-0.5-0.4v0.5l-0.2,0.7l-0.4,0.2l-0.4-0.9v-1.6
		l-0.4-0.7l-1.6,0.4l-2,0.2l-0.9-0.4v0.5l-0.5,0.7l-1.4,0.9l2.2-0.5l0.5,0.5L98.7,46l-0.4,0.5l0.5,0.2l1.4,0.4l1.6,0.2L103,47
		l0.9,0.2l2.5,0.4L107,47.4z M97.4,88.8l0.2,0.9h-0.9V89L97.4,88.8z M97.4,73.3l-0.4-0.4l0.4-0.4l0.4,0.4L97.4,73.3z M97.4,8.3
		L98,8.7l0.2-0.2l-0.9-0.9L97.4,8.3z M101.4,113.8l-0.7,0.2l-0.7,0.7l-0.7,0.4l-0.9,0.7l-0.2,1.1l-0.2,0.9l-0.5,0.5l-0.2,0.5
		l0.5-0.5l0.7-0.4l0.2-0.5l-0.2-0.5l0.2-0.4l0.7-1.1l0.4-0.2l0.9-0.2l0.7-0.7V113.8z M97.8,78.7l0.7-0.5l0.4,0.5l-0.7,0.4L97.8,78.7
		z M100.5,64.5l0.4,1.3l-0.4,1.6l-1.3,0.9l-0.5-0.7l0.5-1.4l0.7-1.4L100.5,64.5z M98.7,73.3l0.7-0.2V74l-0.7,0.2V73.3z M99.4,88.6
		l1.1-0.4l1.4-0.2l0.2,0.4l-1.3,0.5h-1.3L99.4,88.6z M99.9,29l-0.2,0.2l0.2,0.2l0.4-0.2L99.9,29z M101,76.2v-0.4l-0.4,0.2h-0.7
		l0.2-0.4l1.1-1.1l1.4-1.3h0.9l-0.4,1.4l-1.1,1.8l-0.9,0.2L101,76.2z M100.7,4l0.7,0.5h0.9l0.2-0.2l-0.7-0.7l-1.3-0.5l-0.4,0.4
		L100.7,4z M100.8,8.3h-0.2l-0.2,0.7l0.2,0.7h0.4V9.2l-0.4-0.5L100.8,8.3z M100.5,51.4l0.5,1.1l0.5,0.4l0.2-0.2v-0.9l0.4-0.7
		l0.2-0.7h-0.9L100.5,51.4z M100.8,86.6l-0.4-0.4l0.4-0.7l0.7-0.4l0.2,0.2l-0.4,0.7L100.8,86.6z M101.6,17.7l0.9-0.4v-0.2l-1.1,0.2
		l-0.4,0.4H101.6z M103.7,78.3l1.3-0.2l0.9,0.7l-1.4,1.8l-1.6,1.6l-1.8,1.3l0.4-1.1l1.4-2.3L103.7,78.3z M102.8,39.7l-0.7,0.5
		l-0.5,0.4l-0.4-0.2v0.4h0.4l1.1-0.4l0.4-0.7H102.8z M101.4,70.1l0.2,0.2l-0.4,0.4L101.4,70.1z M101.6,100.1l1.1-0.2l1.8,0.4
		l1.1,0.5v0.7l-0.7,0.4v-0.2l0.2-0.4l-0.4-0.2l-1.4-0.2l-1.4-0.4l-0.4-0.4L101.6,100.1z M101.6,8.3l1.1,0.4l0.7,0.2L103,8.7
		l-1.3-0.4H101.6z M103,37.3v-0.5l-0.4-0.4l-0.5-0.2l-0.5,0.7v0.7h0.7L103,37.3z M102.1,33.5l-0.2,0.5l0.2-0.2l0.4-0.2l0.5-0.4
		l-0.2-0.2L102.1,33.5z M102.5,105.5l0.2,0.4l-0.5-0.2v-0.4L102.5,105.5z M103.4,21.1h-0.5l1.1,0.7h0.4L103.4,21.1z M103.2,85.4
		l0.7-0.5l0.9-0.2l0.7,0.2l0.4,0.4l0.4,0.5l-0.5,0.4l-1.6-0.4L103.2,85.4z M104.6,108.8v0.4l-0.9,0.5l-0.4-0.2l0.5-0.5L104.6,108.8z
		 M107.1,13.7l-0.2,0.5l-0.4,0.7l-0.9,0.2l-1.1-0.2l-0.4-0.4h-0.2l0.5,0.7l1.6,0.2l1.3-0.9v-0.7L107.1,13.7z M104.6,11.6l-0.2-0.2
		l0.2,0.4l0.2,0.2L104.6,11.6z M105.7,106.1l-1.1-0.4l0.7-0.5l2.2,0.2l1.8,0.4l-1.1,0.4H105.7z M105.7,25.8l0.9-0.2h0.5l0.2-0.2
		l-0.5-0.5l-1.1,0.2l-0.5,0.5L105.7,25.8z M106.4,19.1l-0.5-0.2v0.2l0.2,0.5l1.1,0.7l2,0.4l1.1-0.2l-0.5-0.4l-0.7-0.4l0.5-0.7
		l0.7-0.7l0.5-0.2h0.2l-0.2-0.4l0.4-0.5l0.2-0.4l-0.7,0.5l-0.9,0.5l-1.8,0.9L106.4,19.1z M105.9,50.5l0.2,0.9l0.7,0.5l-0.4-0.9
		L105.9,50.5z M107.3,65.6l0.9,0.4l1.1,0.5l-0.4,0.9l-0.9,0.2l-0.4-0.4l-0.5,0.2l-0.7-0.4l-0.4-0.9l0.4-0.9L107,65L107.3,65.6z
		 M107.5,43.6l0.4-0.2l0.4-0.4l-0.4,0.2L107.5,43.6z M107.7,71.9l-0.2-0.7l0.5,0.2l0.4,0.7l-0.2,0.5L107.7,71.9z M108.2,78l0.7-0.5
		l0.4,0.5l0.4,1.6l0.9,1.4v0.7l-1.1,0.2l-1.3-0.5l-0.5-1.1v-1.1L108.2,78z M109.5,22.7l0.7-0.2l-0.2-0.4l-1.3,0.5H109.5z
		 M108.9,97.1v-0.4l0.4-0.4l0.2-0.4h0.9l1.1,1.1v1.1l-1.4-0.4L108.9,97.1z M109.8,29.4l1.3-0.5l0.4-0.5l-0.7,0.2l-0.9,0.4l-0.5,0.2
		v0.4H109.8z M109.7,31.7l-0.2,0.5l0.2,0.2l0.2-0.5L109.7,31.7z M110.2,103.9l0.2-0.7l0.7-0.9l0.7-0.7l0.9,0.5l-0.2,1.6l-1.1,1.1
		l-0.9-0.2L110.2,103.9z M110.7,10.5l0.5,0.4l0.4-0.2l0.4-0.9l0.5-1.3l-0.4-0.9V7.1l-0.4,0.5v0.9l-0.2,0.7l-0.9,0.2l-0.4,0.4
		L110.7,10.5z M111.6,119.4l-0.5,0.2l-0.2,0.2l0.4,0.7l0.5,0.5l0.5-0.2l0.4-1.3v-0.7L111.6,119.4z M115.6,118.8l-0.2-0.5l0.2-0.9
		l-0.5-0.9l-0.4-0.7l0.4-0.2v-0.5l-0.9-1.1l-0.7-0.7v-0.4l-0.2-0.4l-1.1,0.9l-0.7,1.4l0.7,0.7l1.1,0.5l1.1,0.9l0.7,0.5l0.2,0.5
		l0.2,0.7l0.5,0.5h0.2L115.6,118.8z M112.2,68.6l-0.5-0.5l0.7-0.5l0.9,0.2l-0.4,0.7L112.2,68.6z M111.8,92.6l0.4-0.5l0.2,0.2
		l-0.4,0.5L111.8,92.6z M112.2,7.1l0.7-0.2l0.9,0.2l0.7,0.4l0.7-0.2l-0.2-0.9l0.2-0.7l0.9-0.7l0.5-0.5l-0.9-0.7l-0.9-0.5l-0.5-0.2
		l0.2,0.2l0.2,0.7l-0.4,0.9L114,4.9l-0.4-0.4l-0.2-0.4v0.4l0.4,0.4l0.4,0.2l0.2,0.4v0.4l-0.9,0.5L112.2,7.1z M112.5,46l0.2,0.5V47
		l-0.2,0.2l0.4-0.2l0.2-0.5l-0.4-0.5H112.5z M113.6,41.8l-0.5-0.5h-0.4l0.4,0.4L113.6,41.8z M114.5,88.8l-0.9-0.7l-0.5-0.7h0.4
		l1.1,0.5l0.9,0.7V89L114.5,88.8z M113.6,36.8l-0.2,0.4h0.2l0.4-0.4H113.6z M114.5,73.5l0.2,1.1l-0.2,0.5H114l-0.5-0.9l0.2-1.1
		L114.5,73.5z M115.6,44.2l0.7-1.4l-0.7-0.2h-1.1l-0.5-0.4l-0.4-0.4l0.4,0.5l0.4,0.4l0.2,0.4l-0.2,0.5l0.5,1.1l1.4,0.7l1.1-0.4
		l-0.9-0.4L115.6,44.2z M114.9,83l0.5,0.4v0.4h-0.5l-1.1-0.4V83H114.9z M115.4,21.8V22l0.5,0.2v-0.4H115.4z M115.8,108.4h-0.4v0.4
		h0.4V108.4z M116.5,17.2l0.9-0.2v-0.4l-0.9-0.2l-0.9,0.2l0.2,0.5H116.5z M119.2,98.1l-0.9,0.9l-0.5-0.2l-0.2,0.2l-0.4,0.9l-0.2,1.3
		l-0.7,0.7l-0.7-0.2l0.2-0.7l0.2-1.3l-0.4-1.6l0.2-0.9l1.6-0.2l2.2-0.5l0.5,0.4L119.2,98.1z M116,75.5l-0.2-0.2l0.4-0.2l0.2,0.2
		L116,75.5z M116.1,104.3l0.2-0.4l0.4,0.2L116.1,104.3z M116.7,110l-0.4,0.4l-0.2,0.5l0.4-0.5L116.7,110z M117.4,34.1v0.2l0.2,0.2
		v-0.2L117.4,34.1z M118.1,85.7l-0.4,0.4v-0.5l0.4-0.5h0.2L118.1,85.7z M119.2,76.2l0.4,0.2l-0.4,0.4l-0.7-0.2l0.2-0.2L119.2,76.2z
		 M120.1,83.7h-0.9v-0.2l0.9-0.2h1.3l-0.4,0.2L120.1,83.7z M119.7,80.7l-0.4-0.2l0.2-0.4l0.4,0.4L119.7,80.7z M119.6,103.2l0.2-0.2
		v0.7l-0.2,0.5l-0.2-0.2L119.6,103.2z M120.6,98.5h0.5l0.2,0.7l-0.5,0.5l-0.4-0.4L120.6,98.5z"/>
</g>
</svg>
