<?xml version="1.0" encoding="utf-8"?>
<!-- Generator: Adobe Illustrator 21.1.0, SVG Export Plug-In . SVG Version: 6.00 Build 0)  -->
<svg version="1.1" xmlns="http://www.w3.org/2000/svg" xmlns:xlink="http://www.w3.org/1999/xlink" x="0px" y="0px"
	 viewBox="0 0 306.5 312.4" style="enable-background:new 0 0 306.5 312.4;" xml:space="preserve">
<style type="text/css">
	.st0{fill:#1A3942;}
	.st1{fill:#A34629;}
</style>
<g id="reel">
	<path id="Reel" class="st0" d="M184.1,66.3C201,72,213,81.1,216.9,99c6.2-21.7,13.5-43.1,7.9-66c11.5,2.3,21.1,15.7,21.5,29.3
		c0.9,30.5-8.9,58.6-20.1,86.2c-9.7,23.8-23.5,44.8-44.2,60.6c-16.4,12.5-34.5,21.5-55.6,14.4c-13.6-4.6-26.7-11.4-39-18.8
		c-9.5-5.7-13.5-16.4-14.2-27c-3.1-46,14.4-83.1,51-111c10.3-7.8,22.2-12.3,35.5-10.3c14.2,2.2,24.7,14.5,27.5,32.9
		c4.3,27.8-4.5,52.6-18.5,76c-10.5,17.5-24,32.1-43.1,41.6C166.9,202.3,217.7,116.3,184.1,66.3z M149.9,123.9
		c0-7.3-0.4-12.8-6.1-15.5c-5.6-2.6-10.9-0.7-15.3,2.9c-10.7,8.8-16.5,20.2-16.3,34.3c0.1,4.9,1.4,9.5,6.2,11.7
		c4.7,2.2,9.5,1.1,13.7-1.9C143.4,147.3,149.2,136,149.9,123.9z M135.5,187.6c-1.8-6.2-3.7-12.7-7.6-18.4c-1.8-2.6-3.2-1.1-4.5,0.8
		c-5.7,8-9.6,17-14,25.8c-1.6,3.1-0.6,4.5,2.8,3.8c7.3-1.6,14.5-3.7,21-7.5C134.6,191.1,135.7,189.9,135.5,187.6z M172.4,132.7
		c-15.7-0.5-24.8,11.2-20,25.8c0.9,2.7,1.9,5.3,2.8,8c0.8,2.2,2.1,2.8,3.4,0.7c6.1-10.3,11.8-20.7,15.7-32
		C175,133.3,174.2,132.6,172.4,132.7z M154.7,66c-9.5,1.5-17.5,4.1-25,8c-2.3,1.2-2.9,3.2-2.3,5.5c1.4,6,3.6,11.7,6.8,17.1
		c1.6,2.7,3.1,2.6,4.7,0.1C144.9,87.2,150.1,77.4,154.7,66z M81.4,167c1.1,7.3,3.5,14.1,6.4,20.8c1.6,3.7,3.3,3.7,5.3,0.3
		c4.9-8.3,8.6-17.2,12.1-26.1c1.4-3.6,0.1-4.8-3.2-4.2c-6.2,1.1-12.3,2.8-18,5.5C82.3,164,81.1,165,81.4,167z M179.7,101.1
		c-1.2-7.8-3.6-15.2-7.2-22.2c-1-1.9-2.2-2.5-3.5-0.1c-4.9,9.2-9.8,18.5-13.3,28.4c-1,2.8,0,3.9,3.2,3.5c6.2-0.8,11.9-2.9,17.7-5.2
		C178.5,104.8,180.1,103.6,179.7,101.1z M111.6,118.8c-0.8-7-2.7-13.7-5.5-20.1c-1.1-2.5-2.1-2.6-3.6-0.3
		c-6.1,9.6-10.9,19.8-15.3,30.2c-0.9,2.2-1,4.1,2.4,3.2c6.8-1.7,13.3-4.3,19.2-8.1C110.6,122.6,111.8,121,111.6,118.8z"/>
</g>
<g id="villas">
	<path class="st1" d="M143.4,262c2-0.3,3.9,1,5,4c4.9,12.8,8.6,25.9,11.2,39.3c0.6,3,0,5.3-3.4,6.2c-3.7,0.9-5.2-1.1-5.8-4.4
		c0-0.2-0.1-0.3-0.2-0.5c-4.2-14.9-4.6-15-19.5-10.8c-3.9,1.1-4.2,4.5-5.1,7.3c-1.1,3.5-3,5.3-6.6,4c-3.6-1.3-2.6-4.4-1.8-6.8
		c4-12.3,10.1-23.5,16.6-34.6C135.8,262.7,139.1,262.4,143.4,262z M139.6,272.9c-2.9,5.6-5.3,10.4-8.1,15.9
		C145.8,286.1,146.5,284.7,139.6,272.9z"/>
	<path class="st1" d="M191.4,304.2c-5.9-1.5-10-2.5-14.1-3.7c-2.7-0.8-4.8-2.2-5-5.4c-0.2-3,1.6-4.5,3.9-5.7
		c7.3-3.7,14.9-6.6,23.3-6.1c2.5,0.2,6,0.8,5.7,3.6c-0.3,2.8-3.4,1-5.4,1.1c-7.6,0.3-14.4,2.9-22.1,7.8c5.6,1.5,9.8,2.6,14,3.8
		c2.9,0.8,5.5,2.1,5.8,5.4c0.4,3.3-2.8,3.7-4.9,4.8c-3.2,1.6-6.5,3.5-10.4,2.6c-1.3-0.3-2.9-0.6-2.9-2.2c-0.1-1.4,1.4-1.7,2.5-2.1
		C184.4,306.9,187,305.9,191.4,304.2z"/>
	<path class="st1" d="M26.5,298.4c2.6-6.1,4.5-10.9,6.5-15.5c0.9-2.1,2.5-4.1,5-2.9c2.8,1.3,0.6,3.5,0,5.1c-2.5,6.5-5.3,12.9-8,19.3
		c-0.8,1.9-2,3.6-4.3,3.7c-2.4,0.1-2.9-2-3.5-3.7c-2.6-7.2-5.1-14.4-7.6-21.6c-0.6-1.7-1.2-3.8,1.4-4.5c2.5-0.7,4.1,0.3,4.9,2.9
		C22.6,286.5,24.3,291.8,26.5,298.4z"/>
	<path class="st1" d="M65,293.8c0.2-3.8,0.3-7.3,0.6-10.8c0.1-1.9,0.4-3.8,3-3.7c2.5,0.1,3.6,1.7,3.7,3.9c0.2,5.1,0.2,10.3,0.2,15.4
		c0,3.9,1.4,5.2,5.1,3c1.9-1.1,4.7-2.8,6.2-0.3c1.6,2.6-1.7,3.9-3.3,5.3c-2,1.7-4.2,3.4-6.7,4.3c-4.3,1.5-7.6,0.3-8-5
		C65.4,301.7,65.2,297.6,65,293.8z"/>
	<path class="st1" d="M99.9,311.4c-2.7-0.5-4.9-1.3-5.2-4.5c-0.8-7.6-1-15.3-0.4-22.9c0.2-1.8,0.4-3.9,3-3.7
		c2.3,0.1,3.1,1.7,3.2,3.8c0.2,5,0.5,10,0.4,15c-0.1,4.2,1.2,5.1,4.9,2.9c1.8-1.1,4.2-2.7,5.8-0.4c1.7,2.6-1.3,3.7-2.8,5
		C106.2,308.6,103.6,311,99.9,311.4z"/>
	<path class="st1" d="M55.3,298.3c0,2.8,0.1,5.7,0,8.5c0,1.5-0.2,3.2-2.2,3.3c-1.8,0.1-2.8-1.2-3.2-2.7c-1.8-6.5-2.1-13.1-1.7-19.8
		c0.1-1.8,1.3-2.6,3-2.5c2.1,0.1,3.6,1.1,3.9,3.2c0.4,3.3,0.5,6.6,0.7,9.9C55.5,298.3,55.4,298.3,55.3,298.3z"/>
	<path class="st1" d="M170.5,284.6c0.1,2.4-0.9,3.1-2.5,2.6c-5.2-1.5-7.4-5.8-8.6-10.6c-0.4-1.7,1.5-2.7,3-2.4
		C168.1,275.6,168.3,281.2,170.5,284.6z"/>
</g>
<g id="Fun">
	<path class="st0" d="M14.8,252.9c0-1-0.1-2,0-3c0.6-4.8-1.9-11.5,2.4-14.1c6.2-3.6,13.9-4.5,21.3-3.5c2.1,0.3,4.6,1.4,4.5,3.9
		c0,2.9-2.9,2-4.7,2.4c-1.5,0.3-2.9,0.5-4.4,0.7c-8.9,1.1-11.8,5.1-10.1,14c0.5,2.8,2.1,2.4,4,1.9c3.4-0.8,6.9-1.5,10.3,0.1
		c1.2,0.6,2.5,1.3,2.4,2.9c-0.1,1.8-1.5,2-2.8,2.2c-1.8,0.3-3.6,0.8-5.4,0.9c-5.4,0.3-9.2,1.8-8.6,8.4c0.2,2.4-0.8,4.7-3.9,4.7
		c-3.2,0-3.7-2.4-4-4.8c-0.6-5.6-1-11.2-1.4-16.9C14.5,253,14.6,253,14.8,252.9z"/>
	<path class="st0" d="M47.7,257.9c0.7-3.5,1.5-7.4,2.4-11.2c0.6-2.7,2.6-3.2,5-2.5c2.5,0.7,3.5,2.2,2.7,4.9
		c-1.4,4.5-1.9,9.1-1.6,13.8c0.2,2.4-0.2,5.8,2.4,6.5c2.5,0.7,4.3-2.1,5.8-4c4-5.1,6.2-11,7-17.3c0.4-3.5,1.8-5.2,5.4-4.9
		c4,0.4,3.5,3.6,3.3,6c-0.4,6.3-3,11.8-6.6,17c-4.5,6.4-10.2,10.3-18.2,7.8C47.6,271.5,49.4,264.1,47.7,257.9z"/>
	<path class="st0" d="M94.3,261.1c0,4.1,0,6.7,0,9.4c0,1.6,0.2,3.6-2.2,3.7c-1.9,0.1-3.6-1.1-3.7-2.7c-0.4-6.8-0.9-13.6-0.3-20.3
		c0.4-3.5,3.8-2.4,5.8-0.6c3.7,3.2,7.3,6.7,11,10.2c2.1-2.5,1.5-5.1,1.8-7.4c0.2-1.9,0.4-3.8,2.8-4c2.3-0.1,4,1.1,4,3.5
		c-0.1,5.6,0.2,11.4-0.9,16.8c-0.9,4.5-4.7,3.5-7.4,1.3C101.9,268.3,98.7,265.1,94.3,261.1z"/>
</g>
<g id="house">
	<path class="st1" d="M22,178.2c0-6.3-0.3-12.7,0.1-19c0.3-4.8-1.6-6.2-6-5.8c-2.3,0.2-4.7,0.1-7,0c-5.7-0.4-9-3.4-9.1-9.2
		c-0.1-12,0-24-0.1-36c0-3.6,1.7-5.9,4.4-7.8C42.1,73.6,79.8,46.8,117.5,20c7.2-5.1,14.3-10.4,21.6-15.3c9.6-6.4,18.9-6.3,28.4,0.3
		c15.5,10.9,31,21.9,46.5,32.8c4.3,3,6.6,17.4,3.7,21.6c-1.5,2.2-3,0.8-4.2-0.1c-17.2-12.2-34.6-24.3-51.5-36.9
		c-6.1-4.5-10.8-5.1-17.3-0.4c-40.4,29.1-81,57.9-121.7,86.5c-4.3,3-6.7,6.1-5.7,11.4c0.2,0.8,0,1.7,0,2.5c0,12.7,0,12.7,12.5,13.8
		c6.3,0.5,9.7,4.2,9.8,10.5c0.1,17.7,0,35.3,0.1,53c0,3.5-1.6,4.8-4.9,4.7c-1.2-0.1-2.4-0.2-3.5,0c-7.5,1.2-10.2-1.8-9.4-9.3
		C22.5,189.5,22,183.8,22,178.2z"/>
	<path class="st1" d="M285.9,305.6c-10.6,2.9-20.5-3.8-31-8.9c-42.2-20.7-86.1-37.3-131.2-50.4c-31.2-9.1-62.8-16.1-95.2-18.9
		c-3.8-0.3-7.7-0.2-11.5-0.3C11,226.9,7,224,7,217.8c0-6.3,4.4-8.5,10.1-8.5c22.8-0.3,45,3.7,67.2,8.5
		c39.1,8.5,77.1,20.6,114.3,35.1c34.8,13.5,68.8,28.7,101.1,47.6c1.7,1,5.1,1.6,4.5,3.9c-0.6,2.4-3.8,1.1-5.8,1.2
		C294.9,305.7,291.4,305.6,285.9,305.6z"/>
	<path class="st1" d="M266.8,207.5c0-19.6,0-39.3,0-58.9c0-9.2,3.1-12.8,12.2-12.1c8.3,0.6,10.4-1.9,10.5-10.2
		c0.2-9.6-2.3-15.8-10.9-20.5c-7.5-4.1-13.8-10.5-21.3-14.8c-6.3-3.6-6.9-8.5-6.1-14.6c1.4-10.7,1.3-10.7,10.1-4.4
		c13.1,9.4,26.2,18.8,39.5,28c4.1,2.8,5.9,6.2,5.8,11.3c-0.3,10.6-0.1,21.3-0.1,32c0,8.5-2.4,11-11,11.1
		c-11.1,0.2-11.1,0.2-11.1,11.2c0,36.5-0.1,72.9,0.1,109.4c0,6.4-2.3,6.6-7,4.5c-7.6-3.5-11.8-8-11.1-17.8
		C267.7,243.6,266.8,225.5,266.8,207.5z"/>
	<path class="st1" d="M271.7,39.6c0,6.5-0.1,13,0,19.5c0.1,4.5-1.6,4.5-5.2,2.7c-9.9-5.1-13.9-12.3-13.1-23.9
		c1.1-17.3,0.3-17.4-17.1-17.3c-3.5,0-7,0.2-10.5,0.4c-2.2,0.1-3.8,0.9-3.8,3.6c-0.1,4-2,4-4.8,2.1c-1.6-1.2-3.5-2.1-4.9-3.4
		c-2.7-2.7-8.3-3.4-6.7-9.1c1.7-6.1,6.2-10.1,12.1-10.4c13.4-0.6,27-0.6,40.4-0.1c7.5,0.3,13.2,8.1,13.6,16.7c0,0.3,0,0.7,0,1
		C271.7,27.3,271.7,33.4,271.7,39.6z"/>
</g>
</svg>
