<?xml version="1.0" encoding="utf-8"?>
<!-- Generator: Adobe Illustrator 21.1.0, SVG Export Plug-In . SVG Version: 6.00 Build 0)  -->
<svg version="1.1" id="Layer_1" xmlns="http://www.w3.org/2000/svg" xmlns:xlink="http://www.w3.org/1999/xlink" x="0px" y="0px" viewBox="0 0 411 509.3" style="enable-background:new 0 0 411 509.3;" xml:space="preserve">
<g id="Krishna_Chaitanya_Kotu">
	<desc  xmlns:shape="http://adobe.com/products/shape"></desc>
	<path d="M292.9,68.5c-0.9,3.3-1.8,6.6-2.8,9.9c5-5.2,6.6-13.3,4-20c6.7,6.8,6.2,19.3-1,25.4c6.9,5.7,13.3,12,19.1,18.9
		c-2,0-4-0.1-5.9-0.2c2.9,4.3,2.9,10.4,0,14.7c5.9,1.6,12.7-3.9,12.4-10.1c4.7,4.1,1.4,12.1-3.3,16.3c-4.7,4.2-10.8,8-11.6,14.2
		c-0.4,3.3,2.3,7.4,5.4,6.2c-5.7,12.2-11.4,26.1-6.4,38.5c-3.2-1.1-5.7-4.2-6.2-7.6c-1.7,4.9-2.2,10.2-1.7,15.4
		c4.2-2.1,8.9-3,13.5-2.5c-2.8,3.3-5.6,6.7-8.4,10c-0.8,1-1.7,2.2-1.7,3.5c0.1,4.8,10,3.5,10.5,8.3c-6.9-3.4-13.7,5.6-14.3,13.3
		c-0.5,7.7,1,16.5-4.1,22.2c-11.4-2.9-24.3,2.7-30.1,12.9c4,0.1,8-1.3,11-4c1.4,2.7-2.1,5.1-4.7,6.6c-7.9,4.5-11.7,13.9-12.6,22.9
		s0.7,18.1,1,27.1c0.8,25-9,50.2-26.4,68.1c-10.7,11.1-25.1,21.1-27.1,36.4c-0.7,5.2,0.2,10.5,0.5,15.8c0.5,9.3-0.9,18.7-2.3,27.9
		c-2.6,16.7-5.1,33.5-7.7,50.2c-9.1,0.1-18.3,0.2-27.4,0.3c2.4-19.2,1.5-38.8-2.6-57.7c-3.5-16.7-9.6-33.8-5.8-50.5
		c1.4-6.4,4.4-12.7,3.7-19.3c-0.5-5.9-3.9-11-6.8-16.2c-16.1-28.8-18.8-63-30.1-93.9c-2.3-6.3-5.1-12.7-9.7-17.5
		c-24.3-25.1-30.1-62.8-29.2-97.7c-2.7,2.3-6.8,2.9-10.1,1.5c6.4-4.1,9.8-12.3,8.3-19.7c-5,2.8-12.1,0.4-14.3-4.8
		c5.1,3.2,13-0.7,13.5-6.7c-2.4,1.3-4.8,2.6-7.2,3.9c7.1-22,14.8-43.9,23.1-65.6c0.9-2.3,3.3-5,5.2-3.5c-3.1,2-4.1,6.6-2.3,9.7
		c4.1-2.6,7.1-7,8-11.8c-1.6,1.5-4.1,2-6.2,1.2c4.2-8.1,8.5-16.3,12.7-24.4c2.8,4.9,10.7,5.7,14.3,1.4c1.7-2.7,1.7-6.4,0.1-9.2
		c8.3-2.1,16.7-4.2,25-6.3c5.1,1.8,10.2,3.3,15.5,4.2c-1.4-4.8-3.8-9.4-6.9-13.3c-1.4,2.1-2.7,4.1-4.1,6.2c-1.6-4.7,3.4-10.2,8.3-9
		c-0.6,2.7-0.1,5.6,1.5,7.9c2.7-0.8,4-4.5,2.3-6.8c2.1-0.3,4.2-0.6,6.4-0.9c1.6,5.7,7.2,10.1,13.2,10.4c-7.5-4.8-5.2-18.6,3.4-20.7
		c-5.1,1.1-5.2,9.4-0.9,12.3c4.3,3,10.1,2.1,15.1,0.4c4.9-1.6,10-3.9,15.1-3.2c14.6,1.9,16.8,23.2,28.9,31.5c6.3,0.7,12.7,1.3,19,2
		c3.3,0.3,7.4,4.7,4.3,5.8c-2.4-3.7-8.9-3.3-10.8,0.6c8.1,3.2,16.2,6.3,24.3,9.5c-5.3-0.3-10.7,2.5-13.5,7
		C281.2,66.7,287,67.6,292.9,68.5 M230.4,327.7c2.7,1.2,5.9,0.9,8.2-0.8c-1.1-0.9-2.9-0.7-3.9,0.3c-1.2-1.7-1.9-3.9-1.7-6
		c-1.5,1.2-3.1,2.3-4.7,3.5c1,0.3,2,0.6,3,0.9c-0.9,1.4-1.8,2.8-2.7,4.2c-0.1-1.3-0.8-3.1-2.1-2.7c0.3,1.5,0.6,3,0.9,4.5
		c-1.1-0.4-2.1-0.7-3.1-1.1c-0.3,1.7,0.7,3.5,2.3,4.1c2.3-1.3,3.9-3.8,4.4-6.4 M267.1,197.6c2.6,0.8,5.2,1.5,7.9,2.2
		c3.5-13.3,1.6-28-5.2-39.9c-0.8-0.7-2.2,0.2-2,1.2c2.5,3.2,3,8.1,1,11.8c-1.2-3.6-2.5-7.2-3.8-10.7c-0.5-1.4-1-2.7-2.1-3.6
		c-0.7-0.5-1.5-0.8-2.3-1.1c-10.3-3.6-21-6-31.8-7.1c-0.9-1.1,0.1-2.9,1.5-2.8c-2.4-2.2-4.7-4.3-7.1-6.5c-2.4,1.9-4.8,3.7-7.3,5.5
		c-2.2-0.5-4.4-1.1-6.6-1.6c2.7-3.9,6.3-7.2,10.4-9.5c7.4,2.1,15.4,2.3,22.9,0.5c-1.1-0.9-2.1-1.7-3.1-2.6c-0.4-1.6,1.2-3.3,2.9-3.2
		c3.7,2.4,7.4,4.8,11.1,7.2c1.8,1.2,3.7,4.2,1.7,5.2c2.7,0.2,3.8,3.4,4.9,5.8c1.2,2.4,4.6,4.6,6.2,2.5c-2.9-3.2-3-7.9-4.2-12
		c-2.6-9-11.9-15.6-21.3-15.1c-9,1.1-17.9,3.8-25.9,8c-2.3,1.2-4.6,2.6-6.1,4.8c-2.2,3.4-1.7,8,0,11.7c1.7,3.7,4.5,6.7,7,10
		c6,8.3,9.8,18.3,10.6,28.5c0.2,1.9,2.3,3,4.1,3.6c3.8,1.5,7.6,2.9,11.4,4.3c0,1.1-0.7,2.2-1.6,2.8c1,1.4,2.4,2.4,4,3.1
		c-0.7,3.2,0.9,6.8,3.8,8.4c-0.1-2.5-0.2-4.9-0.3-7.4c-0.8-0.7-1.7-1.4-2.6-2.1c2.9-0.1,5.9-0.2,8.8-0.3c0.2-2.3,1.1-4.5,2.7-6.2
		c1.1,1,2.2,1.9,3.3,2.9c-1.2-1.9-0.1-4.7,2.1-5.3c0.3-2.1,0.6-4.2,0.9-6.2c-0.7,0.8-2.2,0.1-2.6-0.9c-0.3-1.1,0-2.2,0.3-3.3
		c0.8-2.1,1.5-4.2,2.2-6.3c1.2,0.4,1.6,2.2,0.7,3.1c1.5,0,3-1.4,3.1-2.9c1.1,0,2.1,0,3.2,0.1c-0.5,1-0.4,2.8,0.7,2.5
		c2.2,5.7,1.5,12.4-1.9,17.5C269.3,195.5,268.5,197.3,267.1,197.6 M95.4,202.6c-2.2,0.1-2.6,3.3-1.6,5.2c1,1.9,2.8,3.7,2.5,5.8
		c1.1,0.7,2.7,0.6,3.7-0.3c2.4,0.1,1.6,3.8,0.7,6c-2,5.4,0.9,12,6.2,14.2c3.5-0.3,6.1-3.5,6.9-7c0.8-3.4,0-6.9-0.7-10.4
		c-1.3-6-2.6-11.9-3.9-17.9c-4.7,1.7-7,8.2-4.4,12.5c-1.1,0.4-2.3,0.8-3.5,1.3c-4.1-5.6-3.5-14.2,1.4-19.1c-1.8-0.3-3.5-0.9-5-1.8
		C95,194.2,94.1,198.7,95.4,202.6 M232.5,235.9c4.8-5.7-3.3-17.6,3.5-20.5c2.3,0.1,4.6,0.3,6.9,0.4c-2.4-4.2-6.5-9-10.9-7
		c-3.9,1.7-8.3-0.4-12.3-2.1c-14.3-6.1-31.2-5.6-45.1,1.3c-5.2,2.6-11.1,6.1-16.3,3.7c0.6-2.1,1.2-4.1,1.8-6.2
		c-4.1,0.2-6,5.3-5.5,9.4c0.5,4,2.4,8,1.8,12.1c-0.6,4-5.7,7.6-8.7,4.8c3.4,0.1,5.3-4,4.8-7.3s-2.4-6.3-3-9.6
		c-1.5-8.2,5.3-15.5,12.5-19.8c7.4-4.4,15.7-7.3,24.3-8.2c-9.2,3.5-17.2,10.1-22.4,18.5c19-12.1,44.3-13.3,64.3-3.1
		c-2.1-5.6-7.9-8.9-13.2-11.7c-5.8-3-11.6-6.1-17.4-9.1c-6-3.2-15.8-4.9-17.5,1.7c-3.5-0.7-6.5-3.3-7.8-6.6
		c6.9-5.7,16.5-7.9,25.1-5.8c0,1.9,2.9,1.5,4.7,0.7c4.9-2.4,11-2,15.5,0.9c2.1-3-0.8-7.4-4.4-8.3c-3.5-0.8-7.2,0.7-10.6,2.1
		c1.9-3.2,3.8-6.4,5.6-9.7c-6.6-7.4-10.5-17.9-8.1-27.7c2.3-9.7,11.8-17.8,21.7-16.7c7.5,0.9,15,6.4,21.9,3.3
		c-10.6-9.6-24.6-15.2-38.9-15.5c-1.5,2.1-2,5-1.1,7.4c-0.5,2.2-3.8,2.1-5.6,0.7c-1.8-1.3-3.2-3.4-5.4-3.7
		c-4.3-0.7-8.9,5.6-11.9,2.5c-4.1-4.3-11.1-2.6-16.9-1.2s-13.7,1.1-15.6-4.5c-24.8,25.8-37.3,63-33.2,98.6
		c0.6,5.2,1.5,10.3,2.4,15.4c2.5,13.7,5,27.4,7.8,41.1c9.4,44.4,22.9,88.1,43.1,128.8c2,4.1,4.2,8.2,5.6,12.6
		c-1.6-1.7-3.1-3.4-4.7-5.1c-2.4,0.6-1.5,5.3,1,4.8c-1.1,1.6-2.3,3.2-3.4,4.9c-1.6-1.7-3.1-3.3-4.7-5c-0.9,9.6,0.4,19.4,3.7,28.5
		c2-0.6,3.5,2.8,1.8,3.9c3.2-5.5,8.3-9.9,14.3-12.2c-1.3,5-1.9,10.1-1.7,15.2c-2.6,1.3-6,0.7-8-1.4c-0.6-0.9-1.6,0.7-1.4,1.8
		c1.8,10.6,5.8,20.8,11.6,29.8c4.9-0.5,9.1-4.8,9.6-9.7c0.5-4.8-2.8-9.9-7.5-11.4c0.8-1.2,1.6-2.5,2.3-3.8c1.3,2.2,2.8,4.6,5.2,5.5
		c2.4,0.9,5.8-0.6,5.6-3.1c0.8-1.9-1.3-4.1-3.2-3.5c2.8-6.6,2.7-14.3-0.1-20.9c10.2-16.9,18.4-35.1,24.3-54
		c-4.5-1.4-9.5-1.6-14.2-0.8c-2.9-3.3-0.3-8.3,1.8-12.2c2.1-3.9,2.8-10.1-1.4-11.5c3.3,0.4,4.3-4.2,4.1-7.5
		c-12.3-8.4-26.4-14.1-41.1-16.6c-0.9-2.9-1.8-5.8-2.6-8.7c1.8-0.1,3.4-1.8,3.3-3.6c6.5,9.3,17.3,15.4,28.6,16.3
		c0.7-2.6,2.8-4.9,5.3-5.8c-1.8-2.5-2.1-6-0.8-8.8c-7.3-6.7-16.5-11.3-26.3-13.1c0.5,2.2,2.6,3.9,4.8,3.8
		c-5.5,1.3-11.3-0.4-16.3-2.9c-18.6-9.2-29-29.1-38.2-47.7c16.8-1.1,33.8,0.9,49.9,5.9c-2.2-0.5-2-4.1-0.1-5.3
		c1.9-1.2,4.4-0.8,6.5,0c4.1-1.3,8.4-1.7,12.7-2.1c10-0.9,20-1.7,30-2.6C227.5,238.5,230.6,238.1,232.5,235.9 M258.9,239
		c-1.2-0.7-2.9-0.4-3.7,0.6c2.1,1.6,4.2,3.1,6.3,4.6c6.9-3.4,11-11,12.8-18.5c1.3-5.3,1.7-10.7,1.3-16.1c-0.8-1.9-1.5-3.8-2.3-5.7
		c-0.7,12.1-4.1,23.9-9.8,34.5c-0.9-0.8-1.8-1.5-2.7-2.3C259.9,236.8,259.2,237.9,258.9,239 M231.4,282.6c1.5,1.5,3,2.9,4.6,4.3
		c1.5-1,1.6-3.6,0.2-4.7c1.7,0.1,3,2.2,2.3,3.7c0.7-2.1,1.4-4.3,2.1-6.4c0.8-0.4,2-0.2,2.5,0.6c0.3-1.9,0.7-4,2.1-5.5
		c1.3-1.5,3.9-2,5.2-0.5c0-3.2,1-6.4,2.9-8.9c2.1-2.8,5.4-5.2,5.6-8.6c-0.2-1-1.2-1.7-2.1-1.6c-0.4,1.4-1.7,2.4-3,2.4
		c-2.3,4.6-5.6,8.8-9.5,12.2C240,273.9,235.7,278.3,231.4,282.6 M291.3,206.6c-1-1-2-2-3-3c1.9-2.6,2.9-5.8,3-9
		c-0.8-0.5-1.8-0.7-2.7-0.5c-0.2,1.1-0.4,2.1-0.6,3.2c-1.8,1.9-3.6,3.7-5.4,5.5c-0.6,1.9,0.4,4.2,2.2,5c2.5,1.3,2.5,4.9,2.2,7.7
		c-2.4,2-4.3,4.4-5.6,7.1c1.8,0.5,3.6,1,5.4,1.4c1.3-5.7,4.7-11,9.4-14.5c-1.8-1-4.4-0.2-5.4,1.6C289.8,209.8,290,207.7,291.3,206.6
		 M288.7,91.4c1.4,4.9,3.8,9.4,7.1,13.3c2.7,3.2,6,7.6,3.5,10.9c0.8,0.8,1.5,1.6,2.3,2.4c3.9-7.1,1.1-17-5.9-21
		c-1.8-2.8-3.6-5.6-5.5-8.3C289.7,89.6,289.2,90.5,288.7,91.4 M232.8,29c1.1-0.7,2.3-1.5,3.4-2.3c-4.5-6.3-12.5-10.2-20.3-9.8
		c-1.4,0.1-2.9,0.4-3.6,1.6c4.4,3.2,9.7,5.2,15.1,5.7C229.2,25.8,231,27.4,232.8,29 M250,320.3c-1.1,0,0-1.7,0.6-2.7
		c1.1-1.6-1.5-4-3-2.7c0.2,0.9,0.3,2-0.5,2.5c-0.8,0.5-1.7-1.1-0.8-1.2c-2,2.5-4.3,4.7-6.9,6.5c0.5-0.6-0.5-1.3-1.1-0.9
		c-0.6,0.3-0.7,1.1-0.8,1.8c1.3,0.4,2.6,0.7,3.9,1.1c-1,1.2-1.3,2.9-0.9,4.4C243.7,326.2,246.9,323.2,250,320.3 M214.7,28.7
		c3.3,0.7,6.6,1.4,9.9,2.1c0.8,0.1,1.6,0.3,2.3,0c1-0.3,1.6-1.5,1.3-2.5c-5.2-1.7-10.3-3.3-15.5-4.9c-0.5,1-1.4,1.9-2.5,2.3
		C212.2,25.6,214.1,26.9,214.7,28.7 M245.9,240.1c-0.9,1.2-1.7,2.5-2.5,3.7c3.5-0.9,3.5,6.3,7,7.3c3.1,0.9,5.1-3.8,8.3-4.2
		c-4-1.3-8.1-2.4-12.2-3.3C247.1,242.5,246.8,240.9,245.9,240.1 M160.4,43.3c-0.3,2.6,2.4,5.1,4.9,4.5c2.6-0.5,4.1-3.8,2.8-6.1
		c-2.1-1.9-5-2.9-7.8-2.5C161.3,40.2,160.5,41.9,160.4,43.3 M182,95c0.5,1.8,1,3.7,1.5,5.5c1.1,0.5,2.2,1.1,3.3,1.6
		c2.7-3.5,2.2-9-1-11.9c-1.8,1.3-3.3,2.8-4.7,4.5 M198.8,52.1c-4.1,1.4-7.9,3.6-11,6.6c-1.5,1.5-2.9,3.1-4.3,4.8
		c5.8-2.4,11.4-5.4,16.5-9.1C199.6,53.6,199.2,52.8,198.8,52.1 M142.3,102.6c1.2-1.2,1.4-3.2,0.4-4.6c-3.2,2.1-5.5,5.7-6.2,9.6
		c0.7,0.4,1.5,0.9,2.3,1.4c1.7-1.8,3-4,3.8-6.3 M183.5,21.2c-1.9-2.6-6.1-3.3-8.7-1.4c3.8,1.9,7.6,4,11.3,6.1
		c-0.4-1.8-1.2-3.4-2.4-4.7 M144.4,64.3c-1.8-2.6-3.5-5.2-5.2-7.8c-0.7,1.7-1.3,3.4-1.9,5c1.7,1.5,3.8,2.5,6,2.9 M153.9,54.3
		c-2,1.7-4,3.4-5.9,5c1.2,0.9,2.4,1.8,3.6,2.7c0.9-2.1,1.9-4.2,2.9-6.3 M260.8,49.2c-1.1-0.3-3,0.4-2.2,1.3c0.8,2.3,2.8,4.2,5.2,4.9
		c1.4-2-1-4.6-3.2-5.9 M258.6,216c0.8,1,1.5,2,2.2,3c1.6-0.8,3.5-0.9,5.1-0.2c0.6-0.7,0.6-1.9-0.1-2.6c-2.2-0.4-4.3-0.8-6.4-1.2
		 M220.4,295.7c-0.7,0.8,0.2,2.3,1.3,2.4s2.1-0.6,3-1.3c-0.5-1.1-0.3-2.5,0.6-3.3c-1.1-0.5-2.3-0.6-3.5-0.4
		c-0.5,0.8-0.9,1.7-1.4,2.5 M202.6,177.3c2.3,2.1,5.7,3,8.7,2.2c-1.9-2.8-6.1-3.7-8.9-1.8 M157.8,96c-1.2,0.1-2.3,0.2-3.5,0.3
		c1,1.4,2.1,2.9,3.7,3.6c1.6,0.6,3.8,0,4.2-1.7c-1.8,0.5-3.8-0.4-4.6-2 M116.6,243.3c-1.6-0.9-3.5-1.2-5.3-1c1.2,1.5,2.4,3,3.5,4.4
		c1-0.2,2.1-0.5,2.7-1.3c0.6-0.9,0.1-2.4-0.9-2.3 M216.9,122.8c-2.1-0.7-4.7,0.1-5.9,1.9c3.1,0.4,6.3,0.1,9.2-1
		c-0.8-1-2.3-1.4-3.5-0.9"/>
	<path d="M178.3,404.6L178.3,404.6"/>
	<path d="M146.9,109.1c0.4-1.9,2.6-3.1,4.4-2.6c-0.1,1-0.2,2-0.2,2.9c-1,1-2.1,2-3.5,1.9c-1.3-0.1-2.2-2.2-1-2.8"/>
	<path d="M309.7,163.8c-1.3,0.4-2.6,0.9-3.9,1.3c-0.5-1.2-1-2.4-1.5-3.6c2.4-0.5,5-0.7,7.5-0.4c0.8,1.3-0.5,3.2-2,2.9"/>
	<path d="M187.8,419.1c2-0.7,3.6,1.7,4.4,3.7c-0.6,1.1-2.3,1.1-3.3,0.4c-1-0.7-1.6-2-2.1-3.1c-0.2-0.5-0.4-1.1,0-1.5
		c0.3-0.4,1.2,0.1,0.8,0.5"/>
	<path d="M176.2,162.5c-1,1.1-1.3,2.7-0.8,4.1c-0.9,0.5-1.9,0.6-2.9,0.4c0-2.4,0.9-4.9,2.4-6.8C175.9,159.6,176.4,161.4,176.2,162.5
		"/>
	<path d="M264.8,37.1c1.8-2,5.8-1.1,6.6,1.5c-2.5,0.9-5.1,1.2-7.8,1c-0.4-1,0.3-2.3,1.3-2.4"/>
	<path d="M143.8,19.1c2.1-1.3,4.5-2.1,6.9-2.1c0.8,0.7,0.9,2.1,0.1,2.8c-2.4,0.1-4.7,0.3-7.1,0.5"/>
	<path d="M131.3,200.9c-1.6,0.1-3.2-0.8-3.8-2.3c0.8-1.5,1.1-3.4,0.7-5.1c1.2-0.5,2.5-0.7,3.7-0.5c0.6,2.5,0.2,5.2-0.9,7.4"/>
	<path d="M125.4,200.6c0.2,2.3,0.4,4.6,0.6,7c-0.8,0.5-1.6,1-2.4,1.4c0.5-1.8-0.8-3.6-1.2-5.4c-0.3-1.8,1.5-4.3,3-3.1"/>
	<path d="M235.5,400.2c-1.5-3.3,0.3-7.7,3.6-8.9c-0.3,3.2-1.2,6.4-2.6,9.3"/>
	<path d="M196.5,186.9c0.6-0.3,1.4,0.2,1.4,0.8c0,0.7-0.8,1.2-1.4,0.9c-2.5,0.8-5.5-0.2-7.1-2.3c2.3-0.7,4.8-0.8,7.1-0.3"/>
	<path d="M212.4,485.5c0,1.4-2.1,2.1-3,1.1c-0.2-3.9,0.9-7.8,3-10.9c1,3.2,1,6.7-0.2,9.8"/>
	<path d="M245.8,163c3.1,0.6,6,1.9,8.4,3.7c-3.1,0.5-6.3,0.9-9.4,1.4c-1.1-1.6-0.6-4,1-5"/>
	<path d="M100,404c-2.4-4.3-2.8-9.6-1.1-14.2C100.2,394.4,100.5,399.2,100,404"/>
	<path d="M136.6,219c-1.7,1.4-3.8,2.4-6,2.9c-0.3-1.3-2.2-1.8-3.2-0.9c0-1.9,0-3.9-0.1-5.8c3,1.1,6,2.2,9,3.3"/>
	<path d="M277.9,403.9c-0.5-2-0.1-4.2,1-5.9c1.4,3.5,1.7,7.4,0.8,11.1c0.1-1.9-0.9-3.9-2.5-4.9"/>
	<path d="M201.4,5.3c-2.6,2.4-4.9,5-6.9,7.9C192.3,9.2,197.2,3.6,201.4,5.3"/>
	<path d="M411,494.8c-0.7,4.3-3.2,8.3-6.8,10.8c1.9-4.4,3.7-8.9,5.6-13.4C410.9,492.2,411.1,493.7,411,494.8"/>
	<path d="M218,145.1c3.7,0.8,7.2,2.5,10.3,4.7c-2.3,0.7-4.7,1.3-7,0.6C219,149.8,217.2,147.3,218,145.1"/>
	<path d="M209.9,3.2c2.5-1.5,6.1-0.7,7.7,1.7c-4.5,0.6-8.8,2-12.9,4c-0.4-0.8-0.8-1.5-1.3-2.3c1.2-2.3,3.8-3.8,6.4-3.6"/>
	<path d="M257.8,30c-2.7,0.6-5.4,1.3-8,1.9c-0.5-0.7-0.9-1.5-1.3-2.2c3.8-3.3,9.7-3.8,14-1.2c0.6,0.7,1.2,1.4,1.8,2
		c-2.1,1-4.6,0.9-6.6-0.2"/>
	<path d="M89.1,316.6c4.1-3.3,9.2-6.9,14.2-5.1c-5.1,2.4-9.9,5.2-14.5,8.4C87.3,320.1,87.9,317.6,89.1,316.6"/>
	<path d="M177.9,303c-0.7,1.2-2.7,1.2-3.3,0c-0.3-0.6-0.3-1.3-0.3-1.9c6.4,0.8,12.6,2.4,18.6,4.8C187.9,308.2,181.6,307,177.9,303"
		/>
	<path d="M187.9,369.1c0.3,1.1,0.9,2.1,1.8,2.9c1-1.2,3.4-0.7,3.8,0.9c1.7-0.2,3.3-1.2,4.3-2.6c1.5-0.2,3.1,0.9,3.6,2.4
		c-4,1.8-8.3,2.8-12.7,2.9C186.5,374.4,186,370.9,187.9,369.1"/>
	<path d="M130.3,27.3c-2.7,3.5-6.1,6.4-9.9,8.5c-0.9,0.5-2.2,0.9-2.9,0.2c-1.3-2.2,0.9-4.8,3.2-5.8s5.1-1.8,6.1-4.1
		C127.7,27,129,27.4,130.3,27.3"/>
	<path d="M253.2,171.7c-0.9,0.3-1.9,0.6-2.9,0.9c1,0.3,2,0.7,3,1c-2.1,2.8-4.1,5.6-6.1,8.4c-0.4-2.3-0.8-4.7-1.1-7
		c-0.2,1.2-2.2,1.1-2.8,0.1c-0.6-1-0.2-2.3,0.1-3.5c3.1-1.2,6.3-2.4,9.4-3.6C252.2,169.2,252.4,170.7,253.2,171.7"/>
	<path d="M249.1,482.9c1.7-0.1,2.6,2.8,1.1,3.6c-1.4,7.5-2.4,15-2.9,22.5c-0.9,1-2.1-0.9-2-2.2C245.8,498.8,247.1,490.8,249.1,482.9
		"/>
	<path d="M274.4,404.3c-0.8-6-1.6-12-2.5-18c-0.4-3.2-0.2-7.6,3-8.4c1.3,8.6,2.5,17.2,3.4,25.9C277,403.9,275.7,404.1,274.4,404.3"
		/>
	<path d="M93.1,343c-0.4,5.2-3.3,10.2-7.7,13.1c3.6-10.6,7.1-21.2,10.6-31.8c0.8-2.4,2.1-5.2,4.6-5.3c-1.6,7.2-3.6,14.3-6,21.3
		C93.5,340.4,93.2,341.9,93.1,343"/>
	<path d="M6.5,496c-0.9,4.1-1.5,8.8,0.8,12.2c-2.2,0.4-4.4,0.7-6.6,1.1c-2-7.4,0.9-15,3.6-22.1c3.9-10.1,7.5-20.2,10.9-30.3
		c0.5-1.7,0.9-3.3,1.3-4.9c2.8,5.7,1.4,13.2-3.2,17.6c0.2,0.8,0.3,1.6,0.5,2.4C10.7,479.8,8.3,487.8,6.5,496"/>
	<path d="M105.1,509.1c-0.5-19-1-37.9-1.5-56.8c-0.1-3-0.1-6.1,0.9-8.9c2.5,21.8,3.8,43.7,3.9,65.7
		C107.3,509.1,106.2,509.1,105.1,509.1"/>
	<path d="M356.5,440.9c-1.8,5.6-4.8,10.8-8.8,15.1c-6.7,7.4-8.2,18-9.3,27.9c-1,8.4-2,16.8-3,25.2c-0.9,0-1.9,0-2.8,0
		c1.2-11.2,2.4-22.4,3.5-33.6c0.7-6.2,1.7-13,6.4-17c5.3-4.4,9.2-10.5,11.1-17.1C354.5,441.2,355.5,441.1,356.5,440.9"/>
	<path d="M175.3,223.4c1.5-1.6,2-4,1.2-5.9c0.9-0.4,1.8-0.8,2.7-1.2c-2.2,0.5-4.7-0.9-5.6-3.1c13.1,2.3,26.7,1,39.1-3.5
		c3.4-1.3,8.3-2.1,9.5,1.2c-1.4,1.2-2.8,2.4-4.2,3.6c0.8-0.2,1.7-0.3,2.4,0.2c0.7,0.4,0.7,1.8-0.1,1.9c2.5,2.1,6.3-4.3,8.7-2.1
		c0.9,0.7,0.8,2.1,0.6,3.2c-0.5,2.4-0.9,4.7-1.3,7.1c-0.2,0.8-0.4,1.8-1,2.4c-1.7,1.4-4-0.5-5.3-2.2c-0.8,0.7-1.5,1.4-2.3,2.1
		c-0.6-1.6-2.7-2.1-4.4-2.4c-6.3-0.7-12.7-0.8-19.1-0.2C189.2,225.1,181.6,226.6,175.3,223.4"/>
	<path d="M144.5,146c2.3,5.2,9.3,7.6,14.4,5c0.8,1.4-0.9,3.1-2.4,3.7c-5.2,1.9-11.5,0.5-15.3-3.5c-3.3,1.5-7,2.2-10.6,1.8
		c1.5-3.8,4-7.3,7.1-10c-0.6,0.9,1.2,1.4,2.3,1c6.2-2.2,12.4-4.5,18.6-6.7c4.1-1.5,9-0.4,12,2.8c0.8,1.8,2.3,3.4,4.1,4.2
		c-4,1.9-8.1,3.6-12.2,5.2c0.7-2.1,1.4-4.1,2.3-6.2c-1.1-0.9-2.7,0.1-3.4,1.3c-0.7,1.2-1.1,2.7-2.2,3.4s-2.4,0.6-3.6,0.5
		C151.8,148.1,148.1,147.2,144.5,146"/>
	<path d="M320.9,467.3c-2.6-11.7-5.3-23.3-7.9-35c0.4-2.2-0.3-4.5-1-6.7c-4-12.4-8-24.9-12-37.3c0.9-0.5,1.8,0.5,2.3,1.4
		c2.8,4.8,4.6,10,6.3,15.3C315,425.2,319.1,446.2,320.9,467.3"/>
	<path d="M38.3,425.8c-0.6-3,0.8-6,2.1-8.7c12.9-26.1,25.8-52.2,38.7-78.3c0.1,7.3-2.7,14.4-5.6,21.1
		C63.7,382.8,51.9,404.9,38.3,425.8"/>
	<path d="M270.8,351c3.7,6.9,7.3,13.8,9.7,21.2c2,6.1,3.2,12.5,3.4,19c-2.7-1.2-2.7-4.8-3.3-7.7c-0.5-2.1-1.6-4.1-2.6-6
		c-6.1-11.8-10.5-24.4-13-37.5c-0.3-1.3,0.4-3.5,1.6-2.8c1,5.2,6.5,8,11,11c7.4,4.9,13.2,12.2,16.5,20.5c0.8-0.5,1.7-1,2.6-1.5
		c0.6,2.5-3,4.2-5.2,3.1c-2.3-1.2-3.4-3.7-4.7-5.9C283.4,358.2,277.5,353.3,270.8,351"/>
	<path d="M179.4,125.1c1.1,1.5,3.3-0.1,4.8-1.2c4.1-3.1,11.1-0.1,11.7,5c-0.6-0.5-1.5-0.8-2.4-1c-3.9-0.7-8,0.3-11.2,2.6
		c1.5,3,0.7,7-2,9.1c0.8,0.9,1.8,1.6,2.9,1.9c-0.4,1-1.5,1.6-2.6,1.6c0.3-2.7-4-3.2-5.5-5.5c-0.8-1.2-0.7-2.8,0.2-3.8
		c-4.6-1.8-9.4-3.1-14.2-3.8c-5.1-0.8-10.2-1-15.4-1.2c-3.3-0.1-6.7-0.2-10.1-0.4c-1.2,3.2-4,5.8-7.2,6.9
		c-0.3-6.6,6.4-11.4,12.7-13.5c6.3-2.1,13.4-2.9,18.4-7.3c6,0.3,11.8,2.9,16,7.2c-0.8,0.9-1.6,1.8-2.4,2.8c0.8,0.5,1.8,0.7,2.7,0.5
		c0.4,1.4,0.7,2.7,1,4C178.2,128.2,179.2,126.7,179.4,125.1"/>
	<path d="M128.6,351.6c-0.2-1-0.4-2-0.6-3c-1.1-0.3-2.2-0.7-3.2-1.4c-5.8,2.5-6.2,10.4-5.7,16.7c0.2,3.6,0.5,7.2,0.8,10.9
		c-1.7-0.5-0.7,3.1-2.1,4.1c-0.5,0.3-1.1,0.3-1.6,0.2c-3.3-0.2-6.6-0.5-10-0.7c0-1.3,1.8-1.6,3-1.4c-1.2-0.5-0.8-2.5,0.4-3.1
		c1.2-0.5,2.6-0.1,3.8,0.4c1.6-4.8,1.5-10.2-0.2-15c-0.6-1.5-0.5-4.1,1.1-3.8c-0.8-0.8-1.7-1.6-2.5-2.4c-0.4,0.9-0.8,1.9-1.2,2.9
		c0.6-1.2-2.2-1.6-1.9-0.3c1,4.8-6.4,9.3-4,13.6c0.9,1.6-0.7,3.4-1.8,4.8c-1.2,1.4-1.7,4.1,0.1,4.6c0.9-0.9,2.5-0.6,3.1,0.5
		c-0.4,1.7-2.7,2.5-4.1,1.5c-0.6-0.4-1.2-1.2-2-1.2c-0.8,0-0.8,1.6-0.1,1.2c-1.2-0.9-1.5-2.9-0.4-4c-0.3-1-1.6-0.2-2.4,0.5
		c-0.7,0.6-2.2-0.7-1.3-0.8c-0.4,1.4-0.8,2.8-1.3,4.2c-0.4-7.5-0.2-15,0.5-22.4c7.3-9.5,18.9-15.5,30.8-16c2.2-0.1,4.4,0,6.5,0.7
		c4.3,1.3,7.8,5.2,8.6,9.7c0.9,4.5-1,9.3-4.5,12.2c-2.2-4.5,2.5-10.9-0.9-14.5C133.6,348.3,129.7,349,128.6,351.6"/>
	<path d="M57.7,509c-1.3,0-2.6,0-4,0c2.3-49,12.5-97.7,30-143.6c3.2,1.7,2.4,6.4,1.1,9.8C69.1,418.1,59.9,463.4,57.7,509"/>
	<path d="M266.8,403c0.2,0.8,0.4,1.5,0.2,2.2c-0.6,3.1-5.8,2.1-7.8,4.5c-1.4,11.3-2.8,22.6-4.2,33.9c1,13.5-0.8,27.2-5.2,40
		c0.9-9.1,1.9-18.2,2.8-27.3c-0.8-18.7,0.9-37.6,4.9-55.9c0.7-3.3,1.2-7.5-1.6-9.4c-2.3,1-3.3,4.1-2,6.2c-2.9,1.7-4.8,4.6-6.6,7.4
		c-2.8,4.1-5.5,8.3-7.3,13c-2.4,6.5-2.7,13.6-3,20.5c-0.6,12.5-1.1,25-1.7,37.5c-0.5,1.2-2-0.5-2-1.8c0-6.3-0.1-12.5-0.1-18.8
		c0-15.6-0.1-31.6,5-46.4c0.4-1.2,0.9-2.5,2-3.2c4.4-3,6.7-9,5.2-14.1c1.6,0.3,3.3,0.2,4.9-0.4c-1.2-1.3-2.3-2.7-3.5-4
		c0.1,1.1-1,2.1-2.1,1.9c0.5-1.9,0.1-4-1-5.6c-2.9,0.2-5.6,2.5-6.1,5.4c-3-1.9-2.2-6.5-1-9.9c8.6-1.7,18,1.8,23.4,8.7
		C263.5,391.9,265.2,397.5,266.8,403"/>
</g>
</svg>
